<?xml version="1.0" encoding="utf-8"?>
<!-- Generator: Adobe Illustrator 16.0.0, SVG Export Plug-In . SVG Version: 6.00 Build 0)  -->
<!DOCTYPE svg PUBLIC "-//W3C//DTD SVG 1.1//EN" "http://www.w3.org/Graphics/SVG/1.1/DTD/svg11.dtd" [
	<!ENTITY ns_extend "http://ns.adobe.com/Extensibility/1.0/">
	<!ENTITY ns_ai "http://ns.adobe.com/AdobeIllustrator/10.0/">
	<!ENTITY ns_graphs "http://ns.adobe.com/Graphs/1.0/">
	<!ENTITY ns_vars "http://ns.adobe.com/Variables/1.0/">
	<!ENTITY ns_imrep "http://ns.adobe.com/ImageReplacement/1.0/">
	<!ENTITY ns_sfw "http://ns.adobe.com/SaveForWeb/1.0/">
	<!ENTITY ns_custom "http://ns.adobe.com/GenericCustomNamespace/1.0/">
	<!ENTITY ns_adobe_xpath "http://ns.adobe.com/XPath/1.0/">
]>
<svg version="1.1" id="Livello_1" xmlns:x="&ns_extend;" xmlns:i="&ns_ai;" xmlns:graph="&ns_graphs;"
	 xmlns="http://www.w3.org/2000/svg" xmlns:xlink="http://www.w3.org/1999/xlink" x="0px" y="0px" width="600px" height="400px"
	 viewBox="0 0 600 400" style="enable-background:new 0 0 600 400;" xml:space="preserve">
<metadata>
	<sfw  xmlns="&ns_sfw;">
		<slices></slices>
		<sliceSourceBounds  height="44.002" width="482.645" x="57.78" y="-218.675" bottomLeftOrigin="true"></sliceSourceBounds>
	</sfw>
</metadata>
<g>
	<g>
		<linearGradient id="SVGID_1_" gradientUnits="userSpaceOnUse" x1="97.7319" y1="196.6235" x2="57.7798" y2="196.6235">
			<stop  offset="0" style="stop-color:#ED1C24"/>
			<stop  offset="0.07" style="stop-color:#F6871F"/>
			<stop  offset="0.175" style="stop-color:#F78E30"/>
			<stop  offset="0.2848" style="stop-color:#DCE11F"/>
			<stop  offset="0.3944" style="stop-color:#7AC57D"/>
			<stop  offset="0.524" style="stop-color:#42BDED"/>
			<stop  offset="0.6777" style="stop-color:#4554A4"/>
			<stop  offset="0.8335" style="stop-color:#E60F8D"/>
			<stop  offset="1" style="stop-color:#ED1C24"/>
		</linearGradient>
		<path style="fill:url(#SVGID_1_);" d="M80.081,177.672l0.75,0.05l1.1,0.05l1.85,0.25l0.7,0.15l1.15,0.2l1.75,0.5l0.7,0.3l1.1,0.65
			l0.7,0.4l1.3,0.9l1.55,1.1l0.55,0.4l0.3,0.25l0.35,0.35l0.1,0.4l-0.05,0.4l-0.3,0.4l-0.45,0.55l-0.55,0.55l-0.55,0.5l-0.55,0.45
			l-0.55,0.55l-0.85,1l-0.55,0.6l-0.25,0.25l-0.45,0.4l-0.35,0.15l-0.35,0.05l-0.35-0.1l-0.55-0.3l-0.95-0.7l-0.65-0.35l-1.1-0.5
			l-0.7-0.25l-1.1-0.3l-0.75-0.15l-1.25-0.1h-0.8l-1.1,0.1l-0.8,0.2l-1.1,0.35l-0.75,0.3l-0.65,0.25l-1,0.5l-0.7,0.5l-0.35,0.3
			l-0.6,0.65l-0.45,0.7l-0.35,0.65l-0.35,0.7l-0.3,0.75l-0.25,0.8l-0.15,0.85l-0.1,0.75l-0.1,1.5v0.8l0.05,1.25l0.05,0.75l0.25,1.15
			l0.25,0.75l0.35,0.851l0.4,0.75l0.75,1.101l0.55,0.6l0.95,0.8l0.65,0.45l1,0.5l0.75,0.301l1.1,0.299l0.8,0.15l1.2,0.051h1.15
			l0.7-0.15l0.4-0.1l0.75-0.25l1.25-0.451l0.8-0.35l0.75-0.35l0.65-0.351l0.95-0.6l0.65-0.501l0.5-0.35l0.3-0.1l0.45,0.1l0.55,0.35
			l0.55,0.501l0.2,0.3l0.5,0.55l0.8,1.001l0.5,0.6l1.35,1.55l0.45,0.601l0.25,0.25l0.25,0.449v0.301l-0.4,0.399l-0.9,0.8l-0.6,0.45
			l-0.95,0.7l-0.6,0.4l-1,0.55l-0.65,0.351l-1.15,0.549l-0.75,0.25l-0.85,0.25l-0.85,0.15l-1.25,0.25l-1.75,0.2l-0.9,0.05l-1.25,0.1
			h-2.6l-0.85-0.049l-0.85-0.101l-0.85-0.149l-0.85-0.201l-0.75-0.25l-2.25-0.6l-1.1-0.4l-0.65-0.299l-0.95-0.551l-0.6-0.449
			l-0.65-0.451l-0.7-0.449l-1.3-1.101l-0.6-0.601l-0.55-0.649l-0.55-0.75l-0.45-0.7l-0.4-0.699l-0.35-0.701l-0.5-1.05l-0.75-2.101
			l-0.35-1l-0.5-1.5l-0.1-0.75l-0.05-1.15l0.05-0.75l0.05-0.8v-0.85l0.1-1.7l0.05-0.8l0.15-0.75l0.2-1.1l0.2-0.75l0.25-0.75
			l0.25-0.7l0.35-1l0.35-0.7l0.35-0.75l0.4-0.75l0.45-0.75l0.45-0.7l0.5-0.65l0.55-0.7l0.6-0.65l0.6-0.55l0.65-0.55l0.6-0.5l1.6-1.1
			l0.65-0.4l0.7-0.4l1.5-0.7l0.85-0.3l0.8-0.25l1.7-0.4l0.85-0.15l0.85-0.1l1.55-0.1L80.081,177.672 M80.081,174.672
			c-0.091,0-0.182,0.004-0.272,0.012l-1.061,0.097l-1.511,0.098c-0.053,0.003-0.105,0.008-0.158,0.014l-0.85,0.1
			c-0.057,0.007-0.114,0.015-0.17,0.025l-0.85,0.15c-0.055,0.01-0.11,0.021-0.166,0.034l-1.7,0.4
			c-0.07,0.017-0.139,0.036-0.208,0.057l-0.8,0.25c-0.035,0.011-0.07,0.022-0.104,0.035l-0.85,0.3
			c-0.092,0.032-0.181,0.069-0.269,0.11l-1.5,0.7c-0.075,0.035-0.149,0.073-0.221,0.114l-0.7,0.4
			c-0.028,0.016-0.056,0.033-0.083,0.049l-0.65,0.4c-0.043,0.027-0.085,0.054-0.127,0.083l-1.6,1.1
			c-0.076,0.052-0.15,0.108-0.221,0.167l-0.6,0.5l-0.667,0.564c-0.031,0.026-0.061,0.052-0.09,0.08l-0.6,0.55
			c-0.062,0.056-0.121,0.115-0.177,0.176l-0.6,0.65c-0.054,0.059-0.106,0.12-0.155,0.183l-0.55,0.7l-0.519,0.673
			c-0.051,0.067-0.1,0.136-0.146,0.207l-0.45,0.7c-0.017,0.026-0.033,0.052-0.049,0.079l-0.45,0.75
			c-0.026,0.043-0.051,0.087-0.075,0.132l-0.4,0.75c-0.025,0.047-0.049,0.095-0.071,0.143l-0.333,0.713l-0.332,0.664
			c-0.057,0.114-0.107,0.231-0.149,0.352l-0.35,1l-0.243,0.682c-0.007,0.02-0.014,0.04-0.021,0.06l-0.25,0.75
			c-0.019,0.058-0.037,0.116-0.052,0.175l-0.2,0.75c-0.021,0.078-0.039,0.157-0.053,0.237l-0.195,1.075l-0.145,0.725
			c-0.026,0.132-0.044,0.267-0.052,0.401l-0.05,0.8l-0.101,1.71c-0.003,0.059-0.005,0.118-0.005,0.176v0.756l-0.044,0.707
			l-0.049,0.739c-0.007,0.109-0.009,0.219-0.004,0.329l0.05,1.15c0.004,0.089,0.012,0.178,0.023,0.267l0.1,0.75
			c0.025,0.188,0.068,0.372,0.127,0.552l0.5,1.5l0.365,1.042l0.756,2.118c0.034,0.096,0.073,0.189,0.117,0.281l0.5,1.05
			c0.008,0.017,0.016,0.033,0.024,0.05l0.35,0.701c0.025,0.051,0.052,0.101,0.08,0.149l0.4,0.699
			c0.025,0.045,0.053,0.09,0.081,0.133l0.45,0.7c0.033,0.052,0.068,0.103,0.104,0.152l0.55,0.75
			c0.042,0.057,0.084,0.111,0.129,0.164l0.55,0.649c0.053,0.063,0.109,0.124,0.167,0.182l0.6,0.601
			c0.059,0.06,0.12,0.115,0.184,0.169l1.3,1.101c0.101,0.086,0.207,0.165,0.318,0.236l0.654,0.419l0.561,0.39l0.557,0.417
			c0.094,0.07,0.192,0.136,0.293,0.194l0.95,0.551c0.082,0.047,0.166,0.091,0.251,0.13l0.65,0.299
			c0.075,0.034,0.15,0.065,0.228,0.094l1.1,0.4c0.083,0.03,0.168,0.057,0.253,0.079l2.162,0.576l0.663,0.221
			c0.085,0.028,0.171,0.053,0.258,0.073l0.85,0.201c0.057,0.014,0.114,0.025,0.171,0.036l0.85,0.149
			c0.055,0.01,0.111,0.018,0.167,0.024l0.85,0.101c0.06,0.007,0.12,0.012,0.181,0.016l0.85,0.049
			c0.057,0.003,0.114,0.005,0.172,0.005h2.6c0.08,0,0.159-0.003,0.238-0.01l1.214-0.097l0.864-0.048
			c0.058-0.003,0.117-0.008,0.175-0.015l1.75-0.2c0.083-0.01,0.166-0.022,0.248-0.039l1.217-0.243l0.817-0.145
			c0.109-0.02,0.217-0.045,0.324-0.076l0.85-0.25c0.035-0.01,0.069-0.021,0.103-0.032l0.75-0.25
			c0.117-0.039,0.232-0.085,0.343-0.139l1.15-0.549c0.044-0.021,0.088-0.043,0.131-0.066l0.65-0.351l1.022-0.562
			c0.075-0.041,0.148-0.086,0.22-0.134l0.6-0.4c0.039-0.025,0.078-0.053,0.115-0.08l0.95-0.7l0.62-0.466
			c0.066-0.049,0.13-0.102,0.192-0.156l0.9-0.8c0.044-0.039,0.086-0.079,0.128-0.12l0.4-0.399c0.563-0.563,0.88-1.327,0.88-2.123
			v-0.301c0-0.511-0.13-1.013-0.378-1.459l-0.25-0.449c-0.135-0.243-0.304-0.466-0.5-0.662l-0.099-0.1l-0.322-0.43
			c-0.044-0.059-0.09-0.115-0.138-0.171l-1.329-1.525l-0.459-0.551l-0.78-0.977c-0.04-0.05-0.082-0.098-0.125-0.146l-0.349-0.384
			l-0.076-0.113c-0.135-0.202-0.294-0.388-0.475-0.552l-0.55-0.501c-0.128-0.116-0.266-0.222-0.412-0.314l-0.55-0.35
			c-0.295-0.187-0.62-0.321-0.961-0.397l-0.45-0.1c-0.213-0.047-0.431-0.071-0.648-0.071c-0.32,0-0.64,0.051-0.946,0.153l-0.3,0.1
			c-0.275,0.092-0.536,0.222-0.773,0.388l-0.5,0.35c-0.038,0.027-0.076,0.055-0.112,0.083l-0.539,0.415l-0.745,0.47l-0.482,0.26
			l-0.638,0.298l-0.677,0.296l-1.123,0.405l-0.604,0.201l-0.24,0.06l-0.341,0.073h-0.768l-0.921-0.039l-0.471-0.089l-0.817-0.222
			l-0.473-0.189l-0.699-0.35l-0.358-0.248l-0.694-0.584l-0.273-0.298l-0.537-0.788l-0.253-0.474l-0.254-0.618l-0.167-0.498
			l-0.168-0.775l-0.032-0.489l-0.046-1.151v-0.641l0.086-1.301l0.079-0.589l0.105-0.599l0.158-0.504l0.21-0.526l0.274-0.548
			l0.273-0.508l0.246-0.382l0.303-0.328l0.116-0.099l0.401-0.287l0.661-0.33l0.515-0.198l0.686-0.274l0.906-0.288l0.483-0.121
			l0.734-0.067h0.544l0.955,0.077l0.476,0.095l0.889,0.243l0.474,0.169l0.894,0.406l0.374,0.201l0.78,0.575
			c0.109,0.081,0.224,0.154,0.344,0.219l0.55,0.3c0.194,0.106,0.399,0.19,0.611,0.25l0.35,0.1c0.269,0.077,0.546,0.116,0.825,0.116
			c0.141,0,0.282-0.01,0.422-0.03l0.35-0.05c0.261-0.037,0.516-0.108,0.758-0.212l0.35-0.15c0.298-0.127,0.573-0.302,0.814-0.517
			l0.45-0.4c0.043-0.039,0.085-0.079,0.126-0.12l0.25-0.25c0.031-0.03,0.061-0.062,0.09-0.094l0.55-0.6
			c0.025-0.027,0.05-0.056,0.075-0.084l0.771-0.907l0.358-0.358l0.434-0.355c0.041-0.033,0.08-0.067,0.119-0.103l0.55-0.5
			c0.035-0.031,0.069-0.064,0.102-0.097l0.55-0.55c0.071-0.071,0.139-0.146,0.202-0.224l0.45-0.55
			c0.026-0.032,0.052-0.064,0.076-0.097l0.3-0.4c0.314-0.418,0.513-0.911,0.578-1.431l0.05-0.4c0.046-0.367,0.023-0.739-0.066-1.098
			l-0.1-0.4c-0.132-0.527-0.405-1.009-0.79-1.394l-0.35-0.35c-0.064-0.064-0.131-0.126-0.202-0.185l-0.3-0.25
			c-0.05-0.042-0.101-0.081-0.153-0.12l-0.55-0.4l-1.58-1.122l-1.329-0.919c-0.071-0.049-0.145-0.096-0.22-0.139l-0.7-0.4
			l-1.062-0.628c-0.111-0.065-0.225-0.124-0.343-0.174l-0.7-0.3c-0.117-0.05-0.236-0.092-0.358-0.127l-1.75-0.5
			c-0.102-0.029-0.205-0.053-0.31-0.071l-1.093-0.19l-0.644-0.138c-0.075-0.016-0.15-0.029-0.226-0.04l-1.85-0.25
			c-0.088-0.012-0.177-0.02-0.266-0.024L81,174.727l-0.718-0.048C80.215,174.675,80.148,174.672,80.081,174.672L80.081,174.672z"/>
	</g>
	<g>
		<linearGradient id="SVGID_2_" gradientUnits="userSpaceOnUse" x1="157.7612" y1="208.1924" x2="117.5283" y2="184.9639">
			<stop  offset="0" style="stop-color:#ED1C24"/>
			<stop  offset="0.07" style="stop-color:#F6871F"/>
			<stop  offset="0.175" style="stop-color:#F78E30"/>
			<stop  offset="0.2848" style="stop-color:#DCE11F"/>
			<stop  offset="0.3944" style="stop-color:#7AC57D"/>
			<stop  offset="0.524" style="stop-color:#42BDED"/>
			<stop  offset="0.6777" style="stop-color:#4554A4"/>
			<stop  offset="0.8335" style="stop-color:#E60F8D"/>
			<stop  offset="1" style="stop-color:#ED1C24"/>
		</linearGradient>
		<path style="fill:url(#SVGID_2_);" d="M137.93,177.723l1.5,0.1l1.2,0.05l0.85,0.1l0.85,0.15l0.85,0.2l0.85,0.15l0.8,0.2l0.75,0.2
			l0.75,0.25l1.05,0.4l0.7,0.3l1.65,0.95l0.65,0.45l0.65,0.5l0.85,0.8l0.55,0.5l0.55,0.55l0.45,0.6l0.7,0.95l0.4,0.65l0.35,0.65
			l0.4,0.65l0.55,1l0.4,0.65l0.35,0.75l0.25,0.7l0.25,1.15l0.3,1.5l0.1,0.85l0.15,0.85l0.1,1.7l-0.05,0.8l-0.1,1.15l-0.1,0.75
			l-0.3,1.5l-0.1,1.15l-0.1,0.75l-0.15,0.8l-0.2,0.75l-0.5,1.05l-0.35,0.7l-1.35,2.251l-0.45,0.649l-0.5,0.649l-0.5,0.551l-0.8,0.85
			l-0.55,0.5l-0.65,0.5l-0.6,0.45l-0.9,0.601l-0.65,0.4l-0.75,0.399l-0.7,0.3l-1,0.4l-0.75,0.199l-1.6,0.5l-0.85,0.25l-0.8,0.201
			l-0.85,0.199l-0.85,0.15l-0.85,0.05h-2.7l-1.7-0.101l-1.65-0.199l-0.7-0.15l-0.75-0.199l-2.7-0.9l-0.8-0.25l-0.85-0.35l-1.6-0.701
			l-0.75-0.399l-0.75-0.45l-0.65-0.5l-0.65-0.55l-0.6-0.65l-0.55-0.649l-1.35-1.351l-0.5-0.601l-0.5-0.649l-0.4-0.649l-0.4-1.001
			l-0.75-2.25l-0.3-1.05l-0.15-0.75l-0.15-0.8l-0.15-0.75l-0.15-1.1l-0.05-0.75l-0.05-0.85v-0.85l0.05-0.85l0.05-0.9l0.1-0.85
			l0.15-0.85l0.2-0.85l0.25-0.85l0.25-0.75l0.3-0.8l0.35-1.15l0.35-0.8l0.2-0.45l0.4-0.75l0.7-1.1l0.5-0.7l0.25-0.4l0.6-0.6
			l0.85-0.7l0.65-0.5l0.65-0.45l1.5-1l0.65-0.4l0.7-0.4l0.7-0.35l1.05-0.45l0.7-0.25l0.75-0.25l0.75-0.2l1.9-0.35l0.75-0.15l2.5-0.3
			L137.93,177.723 M138.03,206.774l1.25-0.101l0.8-0.1l1.1-0.25l0.7-0.3l1.1-0.7l0.6-0.45l0.8-0.8l0.5-0.551l0.65-0.799l0.45-0.701
			l0.5-1.1l0.3-0.75l0.25-1.15l0.1-0.75l0.1-1.2v-0.85l-0.05-0.85l-0.05-0.8l-0.3-1.5l-0.2-0.7l-0.55-1.1l-0.4-0.65l-0.7-0.9
			l-0.5-0.55l-0.75-0.8l-0.55-0.45l-1.3-0.75l-0.7-0.3l-0.8-0.25l-0.8-0.15l-1.6-0.1l-0.75,0.05l-1.1,0.05l-0.75,0.15l-1.3,0.35
			l-0.8,0.3l-1.15,0.6l-0.7,0.45l-0.8,0.7l-0.55,0.6l-0.55,0.75l-0.4,0.65l-0.15,0.3l-0.45,1.05l-0.25,0.75l-0.15,0.35l-0.15,0.7
			l-0.1,0.7l-0.05,0.7l-0.05,0.75v0.75l0.05,0.8l0.15,0.8l0.05,0.45l0.2,0.75l0.1,0.35l0.25,0.7l0.2,0.4l0.4,0.699l0.25,0.4
			l0.55,0.7l0.3,0.351l0.6,0.6l1,0.85l0.7,0.45l0.8,0.4l0.75,0.3l1.05,0.35l0.75,0.15l1.25,0.15L138.03,206.774 M137.93,174.723
			c-0.063,0-0.125,0.002-0.188,0.006l-1.6,0.1c-0.057,0.003-0.113,0.009-0.17,0.016l-2.5,0.3c-0.077,0.009-0.154,0.021-0.23,0.037
			l-0.75,0.15l-1.856,0.342c-0.078,0.014-0.154,0.031-0.23,0.052l-0.75,0.2c-0.059,0.016-0.118,0.033-0.175,0.052l-0.75,0.25
			c-0.02,0.007-0.04,0.014-0.06,0.021l-0.7,0.25c-0.058,0.021-0.116,0.043-0.172,0.067l-1.05,0.45
			c-0.054,0.023-0.108,0.048-0.161,0.075l-0.7,0.35c-0.05,0.025-0.099,0.051-0.147,0.079l-0.7,0.4
			c-0.028,0.016-0.056,0.033-0.083,0.049l-0.65,0.4c-0.031,0.019-0.062,0.039-0.092,0.059l-1.5,1
			c-0.015,0.01-0.029,0.02-0.043,0.029l-0.65,0.45c-0.042,0.029-0.082,0.059-0.122,0.089l-0.65,0.5
			c-0.026,0.02-0.052,0.041-0.078,0.062l-0.85,0.7c-0.075,0.062-0.146,0.126-0.214,0.195l-0.6,0.6
			c-0.161,0.16-0.302,0.338-0.423,0.531l-0.201,0.322l-0.446,0.625c-0.031,0.043-0.061,0.088-0.09,0.133l-0.7,1.1
			c-0.041,0.064-0.08,0.13-0.115,0.197l-0.4,0.75c-0.034,0.064-0.066,0.13-0.096,0.197l-0.2,0.45l-0.356,0.813
			c-0.047,0.107-0.088,0.218-0.122,0.33l-0.322,1.06l-0.267,0.711c-0.013,0.035-0.025,0.069-0.037,0.104l-0.25,0.75
			c-0.011,0.034-0.022,0.068-0.032,0.103l-0.25,0.85c-0.016,0.052-0.03,0.105-0.042,0.159l-0.2,0.85
			c-0.013,0.055-0.024,0.111-0.035,0.167l-0.15,0.85c-0.01,0.057-0.018,0.113-0.025,0.17l-0.1,0.851
			c-0.007,0.061-0.012,0.122-0.016,0.183l-0.05,0.9l-0.049,0.842c-0.004,0.058-0.005,0.117-0.005,0.175v0.85
			c0,0.059,0.001,0.117,0.005,0.175l0.05,0.85l0.052,0.775c0.004,0.068,0.011,0.137,0.021,0.205l0.15,1.1
			c0.008,0.061,0.019,0.122,0.031,0.183l0.15,0.75l0.144,0.766l0.156,0.784c0.016,0.079,0.035,0.158,0.057,0.236l0.3,1.05
			c0.012,0.041,0.025,0.083,0.039,0.124l0.75,2.25c0.019,0.057,0.039,0.111,0.061,0.166l0.4,1.001
			c0.064,0.159,0.141,0.313,0.231,0.459l0.4,0.649c0.055,0.089,0.114,0.175,0.178,0.257l0.5,0.649
			c0.023,0.03,0.047,0.061,0.071,0.09l0.5,0.601c0.058,0.069,0.12,0.137,0.184,0.201l1.262,1.263l0.47,0.555
			c0.027,0.032,0.056,0.064,0.084,0.096l0.6,0.65c0.084,0.091,0.174,0.177,0.269,0.257l0.65,0.55
			c0.035,0.029,0.071,0.059,0.107,0.087l0.65,0.5c0.091,0.07,0.187,0.135,0.285,0.194l0.75,0.45
			c0.044,0.026,0.088,0.052,0.134,0.075l0.75,0.399c0.067,0.036,0.136,0.069,0.206,0.101l1.6,0.701
			c0.021,0.009,0.042,0.018,0.063,0.026l0.85,0.35c0.081,0.033,0.163,0.063,0.246,0.089l0.772,0.241l2.673,0.892
			c0.059,0.02,0.119,0.038,0.179,0.054l0.75,0.199c0.046,0.013,0.093,0.023,0.14,0.034l0.7,0.15c0.089,0.019,0.18,0.034,0.27,0.045
			l1.65,0.199c0.061,0.007,0.122,0.013,0.183,0.017l1.7,0.101c0.059,0.003,0.118,0.005,0.177,0.005h2.7
			c0.059,0,0.117-0.002,0.175-0.005l0.85-0.05c0.117-0.007,0.232-0.021,0.347-0.041l0.85-0.15c0.054-0.01,0.108-0.021,0.162-0.033
			l0.85-0.199l0.847-0.213c0.038-0.01,0.077-0.02,0.114-0.031l0.85-0.25c0.017-0.005,0.033-0.01,0.049-0.015l1.538-0.48l0.687-0.183
			c0.117-0.031,0.232-0.069,0.345-0.114l1-0.4c0.022-0.009,0.044-0.019,0.067-0.027l0.7-0.3c0.078-0.033,0.154-0.07,0.229-0.11
			l0.75-0.399c0.055-0.029,0.109-0.06,0.163-0.093l0.65-0.4c0.031-0.02,0.062-0.039,0.093-0.06l0.9-0.601
			c0.046-0.03,0.091-0.063,0.135-0.096l0.6-0.45l0.679-0.521c0.065-0.05,0.128-0.103,0.188-0.157l0.55-0.5
			c0.058-0.053,0.113-0.107,0.167-0.164l0.8-0.85c0.012-0.014,0.024-0.026,0.037-0.04l0.5-0.551
			c0.055-0.061,0.106-0.122,0.156-0.187l0.5-0.649c0.031-0.039,0.06-0.08,0.088-0.121l0.45-0.649
			c0.038-0.054,0.073-0.109,0.107-0.166l1.35-2.251c0.04-0.065,0.076-0.133,0.11-0.201l0.35-0.7
			c0.009-0.018,0.017-0.034,0.025-0.052l0.5-1.05c0.079-0.167,0.143-0.34,0.19-0.519l0.2-0.75c0.019-0.071,0.036-0.144,0.049-0.217
			l0.15-0.8c0.01-0.053,0.019-0.106,0.026-0.16l0.1-0.75c0.006-0.044,0.011-0.09,0.015-0.135l0.085-0.984l0.268-1.337
			c0.013-0.064,0.024-0.129,0.033-0.194l0.1-0.75c0.006-0.045,0.011-0.09,0.015-0.135l0.1-1.15c0.002-0.024,0.004-0.048,0.005-0.072
			l0.05-0.8c0.008-0.121,0.008-0.243,0-0.364l-0.1-1.7c-0.007-0.116-0.02-0.23-0.04-0.345l-0.135-0.765l-0.09-0.765
			c-0.009-0.08-0.022-0.16-0.038-0.238l-0.3-1.5l-0.26-1.198c-0.027-0.126-0.063-0.25-0.106-0.372l-0.25-0.7
			c-0.031-0.088-0.067-0.174-0.106-0.259l-0.35-0.75c-0.049-0.105-0.104-0.207-0.165-0.306l-0.361-0.586l-0.514-0.935
			c-0.023-0.042-0.048-0.084-0.073-0.126l-0.355-0.577l-0.31-0.575c-0.027-0.051-0.057-0.101-0.087-0.151l-0.4-0.65
			c-0.043-0.07-0.089-0.139-0.139-0.205l-0.7-0.95l-0.466-0.622c-0.085-0.113-0.178-0.221-0.279-0.321l-0.55-0.55
			c-0.034-0.034-0.068-0.067-0.104-0.099l-0.531-0.482l-0.831-0.782c-0.072-0.068-0.148-0.132-0.227-0.193l-0.65-0.5
			c-0.04-0.031-0.081-0.061-0.122-0.089l-0.65-0.45c-0.068-0.047-0.138-0.092-0.21-0.133l-1.65-0.95
			c-0.102-0.058-0.207-0.11-0.314-0.157l-0.7-0.3c-0.038-0.017-0.077-0.032-0.116-0.047l-1.05-0.4
			c-0.039-0.015-0.079-0.029-0.119-0.042l-0.75-0.25c-0.059-0.02-0.117-0.037-0.177-0.053l-0.75-0.2l-0.844-0.211
			c-0.068-0.017-0.138-0.032-0.207-0.044l-0.766-0.135l-0.767-0.181c-0.055-0.013-0.111-0.024-0.167-0.035l-0.85-0.15
			c-0.057-0.01-0.113-0.018-0.17-0.025l-0.85-0.1c-0.076-0.009-0.151-0.015-0.227-0.018l-1.163-0.048l-1.462-0.097
			C138.063,174.725,137.997,174.723,137.93,174.723L137.93,174.723z M136.495,189.459l0.873-0.04
			c0.021-0.001,0.041-0.002,0.062-0.004l0.557-0.037l1.223,0.076l0.445,0.083l0.484,0.151l0.396,0.17l0.936,0.54l0.208,0.169
			l0.614,0.655l0.391,0.431l0.529,0.68l0.245,0.398l0.366,0.732l0.09,0.314l0.237,1.183l0.037,0.597l0.044,0.751v0.638l-0.083,1.002
			l-0.074,0.555l-0.171,0.786l-0.181,0.454l-0.382,0.84l-0.242,0.376l-0.492,0.604l-0.397,0.438l-0.598,0.599l-0.337,0.253
			l-0.797,0.507l-0.225,0.097l-0.689,0.156l-0.586,0.073l-0.977,0.079l-0.55-0.032l-1.042-0.126l-0.454-0.091l-0.79-0.263
			l-0.552-0.221l-0.543-0.271l-0.396-0.255l-0.756-0.643l-0.432-0.432l-0.183-0.214l-0.411-0.522l-0.134-0.215l-0.33-0.575
			l-0.081-0.163l-0.157-0.439l-0.066-0.231l-0.135-0.505l-0.025-0.226c-0.008-0.074-0.02-0.149-0.033-0.223l-0.116-0.619
			l-0.033-0.523v-0.555l0.043-0.65l0.042-0.582l0.07-0.493l0.067-0.313l0.035-0.083c0.033-0.076,0.062-0.153,0.088-0.232l0.21-0.632
			l0.366-0.854l0.051-0.102l0.268-0.435l0.381-0.52l0.328-0.357l0.509-0.446l0.399-0.257l0.866-0.452l0.494-0.185l1.066-0.287
			L136.495,189.459L136.495,189.459z"/>
	</g>
	<g>
		<linearGradient id="SVGID_3_" gradientUnits="userSpaceOnUse" x1="215.0146" y1="212.2334" x2="174.0137" y2="188.5615">
			<stop  offset="0" style="stop-color:#ED1C24"/>
			<stop  offset="0.07" style="stop-color:#F6871F"/>
			<stop  offset="0.175" style="stop-color:#F78E30"/>
			<stop  offset="0.2848" style="stop-color:#DCE11F"/>
			<stop  offset="0.3944" style="stop-color:#7AC57D"/>
			<stop  offset="0.524" style="stop-color:#42BDED"/>
			<stop  offset="0.6777" style="stop-color:#4554A4"/>
			<stop  offset="0.8335" style="stop-color:#E60F8D"/>
			<stop  offset="1" style="stop-color:#ED1C24"/>
		</linearGradient>
		<path style="fill:url(#SVGID_3_);" d="M185.178,178.522l2.45,0.15h0.8l3.55-0.05h0.5l0.35,0.2l0.25,0.35v4.35l0.1,2.9v0.8
			l-0.15,2.9v0.8l0.1,2.9v0.8l0.15,2.9v0.8l-0.3,6.6l0.05,0.5l0.05,0.25l0.1,0.25l0.25,0.201l0.6,0.1l1.7,0.1l1.5-0.1h0.8l7.2-0.1
			l0.8-0.051l1.7-0.2l0.8-0.05h0.75l0.6,0.15l0.35,0.3l0.15,0.351l0.05,0.549l0.05,2.801l0.05,0.8l0.1,1.55l-0.05,0.801v0.449
			l-0.15,0.601l-0.3,0.351l-0.35,0.149l-0.5,0.101h-0.4l-0.7,0.049l-5.55-0.299h-3.75l-4.5,0.299l-2.9-0.199h-3.7l-2.3,0.15h-0.75
			l-0.7-0.051l-0.55-0.1l-0.35-0.2l-0.25-0.3l-0.1-0.6v-0.801l0.25-1.9l0.05-0.75l-0.2-2.65v-0.799l0.1-2.65v-0.801l0.1-6.1v-0.8
			l-0.2-6.1v-0.8l-0.05-2.65v-4.25l-0.1-1.5v-0.75l0.05-0.45l0.15-0.65l0.2-0.3l0.35-0.15l0.55-0.1h0.4L185.178,178.522
			 M185.178,175.522c-0.067,0-0.134,0.002-0.201,0.007l-0.65,0.043h-0.299c-0.18,0-0.36,0.016-0.538,0.048l-0.55,0.1
			c-0.221,0.041-0.437,0.105-0.643,0.194l-0.35,0.15c-0.535,0.229-0.991,0.608-1.314,1.092l-0.2,0.3
			c-0.201,0.302-0.347,0.638-0.428,0.992l-0.15,0.65c-0.026,0.114-0.046,0.229-0.059,0.344l-0.05,0.45
			c-0.012,0.11-0.018,0.22-0.018,0.33v0.75c0,0.066,0.002,0.133,0.006,0.199l0.093,1.401v4.151c0,0.019,0,0.038,0,0.057l0.05,2.621
			v0.772c0,0.033,0,0.065,0.001,0.099l0.199,6.051v0.751l-0.1,6.051l0,0.792l-0.098,2.595c-0.001,0.038-0.002,0.075-0.002,0.113
			v0.799c0,0.075,0.003,0.15,0.008,0.226l0.184,2.438l-0.029,0.441l-0.237,1.805c-0.017,0.13-0.026,0.261-0.026,0.392v0.801
			c0,0.165,0.014,0.331,0.041,0.494l0.1,0.6c0.088,0.525,0.314,1.018,0.655,1.427l0.25,0.3c0.229,0.274,0.505,0.506,0.815,0.684
			l0.35,0.2c0.296,0.169,0.619,0.287,0.955,0.348l0.55,0.1c0.105,0.019,0.211,0.032,0.318,0.04l0.7,0.051
			c0.072,0.005,0.145,0.008,0.217,0.008h0.75c0.065,0,0.13-0.002,0.196-0.007l2.203-0.144h3.499l2.797,0.192
			c0.068,0.005,0.137,0.007,0.206,0.007c0.066,0,0.133-0.002,0.199-0.007l4.401-0.292h3.57l5.47,0.295
			c0.054,0.003,0.107,0.004,0.161,0.004c0.07,0,0.139-0.002,0.208-0.007l0.596-0.042h0.295c0.199,0,0.397-0.02,0.592-0.059
			l0.5-0.101c0.201-0.041,0.397-0.102,0.586-0.183l0.35-0.149c0.424-0.181,0.801-0.457,1.101-0.808l0.3-0.351
			c0.303-0.354,0.52-0.772,0.632-1.225l0.15-0.601c0.06-0.237,0.089-0.481,0.089-0.727v-0.355l0.044-0.708
			c0.008-0.126,0.008-0.253,0-0.379l-0.1-1.55l-0.045-0.729l-0.049-2.733c-0.001-0.073-0.005-0.146-0.012-0.22l-0.05-0.549
			c-0.028-0.313-0.106-0.618-0.229-0.906l-0.15-0.351c-0.181-0.423-0.457-0.8-0.807-1.099l-0.35-0.3
			c-0.353-0.303-0.771-0.519-1.222-0.632l-0.6-0.15c-0.239-0.06-0.483-0.09-0.729-0.09h-0.75c-0.062,0-0.125,0.002-0.187,0.006
			l-0.8,0.05c-0.055,0.003-0.11,0.008-0.164,0.015l-1.62,0.19l-0.646,0.041l-7.126,0.099h-0.759c-0.066,0-0.133,0.002-0.199,0.007
			l-0.974,0.064l0.22-4.836c0.002-0.045,0.003-0.091,0.003-0.136v-0.8c0-0.052-0.001-0.103-0.004-0.155l-0.146-2.823v-0.722
			c0-0.035,0-0.069-0.002-0.104l-0.098-2.849v-0.67l0.146-2.823c0.002-0.052,0.004-0.104,0.004-0.155v-0.8
			c0-0.035,0-0.069-0.002-0.104l-0.098-2.848v-4.298c0-0.625-0.195-1.235-0.559-1.743l-0.25-0.35
			c-0.251-0.353-0.577-0.646-0.952-0.861l-0.35-0.2c-0.454-0.259-0.967-0.396-1.489-0.396h-0.5l-3.593,0.051l-0.665,0l-2.359-0.145
			C185.301,175.524,185.239,175.522,185.178,175.522L185.178,175.522z"/>
	</g>
	<g>
		<linearGradient id="SVGID_4_" gradientUnits="userSpaceOnUse" x1="274.5283" y1="185.2266" x2="234.2721" y2="208.4685">
			<stop  offset="0" style="stop-color:#ED1C24"/>
			<stop  offset="0.07" style="stop-color:#F6871F"/>
			<stop  offset="0.175" style="stop-color:#F78E30"/>
			<stop  offset="0.2848" style="stop-color:#DCE11F"/>
			<stop  offset="0.3944" style="stop-color:#7AC57D"/>
			<stop  offset="0.524" style="stop-color:#42BDED"/>
			<stop  offset="0.6777" style="stop-color:#4554A4"/>
			<stop  offset="0.8335" style="stop-color:#E60F8D"/>
			<stop  offset="1" style="stop-color:#ED1C24"/>
		</linearGradient>
		<path style="fill:url(#SVGID_4_);" d="M254.778,177.723l1.5,0.1l1.2,0.05l0.85,0.1l0.85,0.15l0.85,0.2l0.85,0.15l0.8,0.2l0.75,0.2
			l0.75,0.25l1.05,0.4l0.7,0.3l1.65,0.95l0.65,0.45l0.65,0.5l0.85,0.8l0.55,0.5l0.55,0.55l0.45,0.6l0.7,0.95l0.4,0.65l0.35,0.65
			l0.4,0.65l0.55,1l0.4,0.65l0.35,0.75l0.25,0.7l0.25,1.15l0.3,1.5l0.1,0.85l0.15,0.85l0.1,1.7l-0.05,0.8l-0.1,1.15l-0.1,0.75
			l-0.3,1.5l-0.1,1.15l-0.1,0.75l-0.15,0.8l-0.2,0.75l-0.5,1.05l-0.35,0.7l-1.35,2.251l-0.45,0.649l-0.5,0.649l-0.5,0.551l-0.8,0.85
			l-0.55,0.5l-0.65,0.5l-0.6,0.45l-0.9,0.601l-0.65,0.4l-0.75,0.399l-0.7,0.3l-1,0.4l-0.75,0.199l-1.6,0.5l-0.85,0.25l-0.8,0.201
			l-0.85,0.199l-0.85,0.15l-0.85,0.05h-2.7l-1.7-0.101l-1.65-0.199l-0.7-0.15l-0.75-0.199l-2.7-0.9l-0.8-0.25l-0.85-0.35l-1.6-0.701
			l-0.75-0.399l-0.75-0.45l-0.65-0.5l-0.65-0.55l-0.6-0.65l-0.55-0.649l-1.35-1.351l-0.5-0.601l-0.5-0.649l-0.4-0.649l-0.4-1.001
			l-0.75-2.25l-0.3-1.05l-0.15-0.75l-0.15-0.8l-0.15-0.75l-0.15-1.1l-0.05-0.75l-0.05-0.85v-0.85l0.05-0.85l0.05-0.9l0.1-0.85
			l0.15-0.85l0.2-0.85l0.25-0.85l0.25-0.75l0.3-0.8l0.35-1.15l0.35-0.8l0.2-0.45l0.4-0.75l0.7-1.1l0.5-0.7l0.25-0.4l0.6-0.6
			l0.85-0.7l0.65-0.5l0.65-0.45l1.5-1l0.65-0.4l0.7-0.4l0.7-0.35l1.05-0.45l0.7-0.25l0.75-0.25l0.75-0.2l1.9-0.35l0.75-0.15l2.5-0.3
			L254.778,177.723 M254.878,206.774l1.25-0.101l0.8-0.1l1.1-0.25l0.7-0.3l1.1-0.7l0.6-0.45l0.8-0.8l0.5-0.551l0.65-0.799
			l0.45-0.701l0.5-1.1l0.3-0.75l0.25-1.15l0.1-0.75l0.1-1.2v-0.85l-0.05-0.85l-0.05-0.8l-0.3-1.5l-0.2-0.7l-0.55-1.1l-0.4-0.65
			l-0.7-0.9l-0.5-0.55l-0.75-0.8l-0.55-0.45l-1.3-0.75l-0.7-0.3l-0.8-0.25l-0.8-0.15l-1.6-0.1l-0.75,0.05l-1.1,0.05l-0.75,0.15
			l-1.3,0.35l-0.8,0.3l-1.15,0.6l-0.7,0.45l-0.8,0.7l-0.55,0.6l-0.55,0.75l-0.4,0.65l-0.15,0.3l-0.45,1.05l-0.25,0.75l-0.15,0.35
			l-0.15,0.7l-0.1,0.7l-0.05,0.7l-0.05,0.75v0.75l0.05,0.8l0.15,0.8l0.05,0.45l0.2,0.75l0.1,0.35l0.25,0.7l0.2,0.4l0.4,0.699
			l0.25,0.4l0.55,0.7l0.3,0.351l0.6,0.6l1,0.85l0.7,0.45l0.8,0.4l0.75,0.3l1.05,0.35l0.75,0.15l1.25,0.15L254.878,206.774
			 M254.778,174.723c-0.063,0-0.125,0.002-0.188,0.006l-1.6,0.1c-0.057,0.003-0.113,0.009-0.169,0.016l-2.5,0.3
			c-0.078,0.009-0.155,0.021-0.231,0.037l-0.75,0.15l-1.855,0.342c-0.078,0.014-0.154,0.031-0.23,0.052l-0.75,0.2
			c-0.059,0.016-0.118,0.033-0.175,0.052l-0.75,0.25c-0.02,0.007-0.04,0.014-0.06,0.021l-0.7,0.25
			c-0.058,0.021-0.116,0.043-0.172,0.067l-1.05,0.45c-0.054,0.023-0.108,0.048-0.161,0.075l-0.7,0.35
			c-0.05,0.025-0.099,0.051-0.147,0.079l-0.7,0.4c-0.028,0.016-0.056,0.033-0.083,0.049l-0.65,0.4
			c-0.031,0.019-0.062,0.039-0.092,0.059l-1.5,1c-0.015,0.01-0.029,0.02-0.043,0.029l-0.65,0.45
			c-0.042,0.029-0.082,0.059-0.122,0.089l-0.65,0.5c-0.026,0.02-0.052,0.041-0.078,0.062l-0.85,0.7
			c-0.075,0.062-0.146,0.126-0.214,0.195l-0.6,0.6c-0.161,0.16-0.302,0.338-0.423,0.531l-0.201,0.322l-0.446,0.625
			c-0.031,0.043-0.061,0.088-0.09,0.133l-0.7,1.1c-0.041,0.064-0.08,0.13-0.115,0.197l-0.4,0.75
			c-0.034,0.064-0.066,0.13-0.096,0.197l-0.2,0.45l-0.356,0.813c-0.047,0.107-0.088,0.218-0.122,0.33l-0.322,1.06l-0.267,0.711
			c-0.013,0.035-0.025,0.069-0.037,0.104l-0.25,0.75c-0.011,0.034-0.022,0.068-0.032,0.103l-0.25,0.85
			c-0.016,0.052-0.03,0.105-0.042,0.159l-0.2,0.85c-0.013,0.055-0.024,0.111-0.035,0.167l-0.15,0.85
			c-0.01,0.057-0.018,0.113-0.025,0.17l-0.1,0.851c-0.007,0.061-0.012,0.122-0.016,0.183l-0.05,0.9l-0.049,0.842
			c-0.003,0.058-0.005,0.117-0.005,0.175v0.85c0,0.059,0.002,0.117,0.005,0.175l0.05,0.85l0.052,0.775
			c0.004,0.068,0.011,0.137,0.021,0.205l0.15,1.1c0.008,0.061,0.019,0.122,0.031,0.183l0.15,0.75l0.144,0.766l0.156,0.784
			c0.016,0.079,0.035,0.158,0.057,0.236l0.3,1.05c0.012,0.041,0.025,0.083,0.039,0.124l0.75,2.25
			c0.019,0.057,0.039,0.111,0.061,0.166l0.4,1.001c0.064,0.159,0.141,0.313,0.231,0.459l0.4,0.649
			c0.055,0.089,0.114,0.175,0.178,0.257l0.5,0.649c0.023,0.03,0.047,0.061,0.071,0.09l0.5,0.601c0.058,0.069,0.12,0.137,0.184,0.201
			l1.262,1.263l0.47,0.555c0.027,0.032,0.056,0.064,0.084,0.096l0.6,0.65c0.084,0.091,0.173,0.177,0.268,0.256l0.65,0.55
			c0.036,0.03,0.072,0.06,0.109,0.088l0.65,0.5c0.091,0.07,0.186,0.135,0.285,0.194l0.75,0.45c0.044,0.026,0.088,0.052,0.134,0.075
			l0.75,0.399c0.067,0.036,0.136,0.069,0.206,0.101l1.6,0.701c0.021,0.009,0.042,0.018,0.063,0.026l0.85,0.35
			c0.081,0.033,0.163,0.063,0.246,0.089l0.772,0.241l2.673,0.892c0.059,0.02,0.119,0.038,0.179,0.054l0.75,0.199
			c0.046,0.013,0.093,0.023,0.14,0.034l0.7,0.15c0.089,0.019,0.18,0.034,0.271,0.045l1.65,0.199
			c0.061,0.007,0.121,0.013,0.182,0.017l1.7,0.101c0.059,0.003,0.118,0.005,0.177,0.005h2.7c0.059,0,0.117-0.002,0.175-0.005
			l0.85-0.05c0.117-0.007,0.232-0.021,0.347-0.041l0.85-0.15c0.054-0.01,0.108-0.021,0.162-0.033l0.85-0.199l0.847-0.213
			c0.038-0.01,0.077-0.02,0.114-0.031l0.85-0.25c0.017-0.005,0.033-0.01,0.049-0.015l1.538-0.48l0.687-0.183
			c0.117-0.031,0.232-0.069,0.345-0.114l1-0.4c0.022-0.009,0.044-0.019,0.067-0.027l0.7-0.3c0.078-0.033,0.154-0.07,0.229-0.11
			l0.75-0.399c0.055-0.029,0.109-0.06,0.163-0.093l0.65-0.4c0.031-0.02,0.062-0.039,0.093-0.06l0.9-0.601
			c0.046-0.03,0.091-0.063,0.135-0.096l0.6-0.45l0.679-0.521c0.065-0.05,0.128-0.103,0.188-0.157l0.55-0.5
			c0.058-0.053,0.113-0.107,0.167-0.164l0.8-0.85c0.012-0.014,0.024-0.026,0.037-0.04l0.5-0.551
			c0.055-0.061,0.106-0.122,0.156-0.187l0.5-0.649c0.031-0.039,0.06-0.08,0.088-0.121l0.45-0.649
			c0.038-0.054,0.074-0.109,0.107-0.166l1.35-2.251c0.04-0.065,0.076-0.133,0.11-0.201l0.35-0.7
			c0.009-0.018,0.017-0.034,0.025-0.052l0.5-1.05c0.079-0.167,0.143-0.34,0.19-0.519l0.2-0.75c0.019-0.071,0.036-0.144,0.049-0.217
			l0.15-0.8c0.01-0.053,0.019-0.106,0.026-0.16l0.1-0.75c0.006-0.044,0.011-0.09,0.015-0.135l0.085-0.984l0.268-1.337
			c0.013-0.064,0.024-0.129,0.033-0.194l0.1-0.75c0.006-0.045,0.011-0.09,0.015-0.135l0.1-1.15c0.002-0.024,0.004-0.048,0.005-0.072
			l0.05-0.8c0.007-0.121,0.008-0.243,0-0.364l-0.1-1.7c-0.007-0.116-0.02-0.23-0.04-0.345l-0.135-0.765l-0.09-0.765
			c-0.009-0.08-0.022-0.16-0.038-0.238l-0.3-1.5l-0.26-1.198c-0.027-0.126-0.063-0.25-0.106-0.372l-0.25-0.7
			c-0.031-0.088-0.067-0.175-0.107-0.26l-0.35-0.75c-0.048-0.104-0.103-0.205-0.163-0.303l-0.361-0.587l-0.515-0.936
			c-0.023-0.042-0.048-0.084-0.073-0.126l-0.355-0.577l-0.31-0.575c-0.027-0.051-0.057-0.101-0.087-0.151l-0.4-0.65
			c-0.043-0.07-0.089-0.139-0.139-0.205l-0.7-0.95l-0.466-0.622c-0.085-0.113-0.178-0.221-0.279-0.321l-0.55-0.55
			c-0.034-0.034-0.068-0.067-0.104-0.099l-0.531-0.482l-0.831-0.782c-0.072-0.068-0.148-0.132-0.227-0.193l-0.65-0.5
			c-0.04-0.031-0.081-0.061-0.122-0.089l-0.65-0.45c-0.068-0.047-0.138-0.092-0.21-0.133l-1.65-0.95
			c-0.102-0.058-0.207-0.11-0.314-0.157l-0.7-0.3c-0.038-0.017-0.077-0.032-0.116-0.047l-1.05-0.4
			c-0.039-0.015-0.079-0.029-0.119-0.042l-0.75-0.25c-0.059-0.02-0.117-0.037-0.177-0.053l-0.75-0.2l-0.844-0.211
			c-0.068-0.017-0.138-0.032-0.207-0.044l-0.766-0.135l-0.767-0.181c-0.055-0.013-0.111-0.024-0.167-0.035l-0.85-0.15
			c-0.057-0.01-0.113-0.018-0.17-0.025l-0.851-0.1c-0.075-0.009-0.15-0.015-0.226-0.018l-1.163-0.048l-1.462-0.097
			C254.912,174.725,254.845,174.723,254.778,174.723L254.778,174.723z M253.343,189.459l0.873-0.04
			c0.021-0.001,0.041-0.002,0.062-0.004l0.557-0.037l1.223,0.076l0.445,0.083l0.484,0.151l0.396,0.17l0.936,0.54l0.208,0.169
			l0.614,0.655l0.391,0.431l0.529,0.68l0.245,0.397l0.367,0.733l0.09,0.315l0.237,1.182l0.037,0.597l0.044,0.751v0.638l-0.083,1.002
			l-0.074,0.555l-0.171,0.786l-0.181,0.454l-0.382,0.84l-0.242,0.376l-0.492,0.604l-0.397,0.438l-0.598,0.599l-0.337,0.253
			l-0.797,0.507l-0.226,0.097l-0.688,0.156l-0.586,0.073l-0.977,0.079l-0.55-0.032l-1.042-0.126l-0.454-0.091l-0.79-0.263
			l-0.552-0.221l-0.543-0.271l-0.396-0.255l-0.756-0.643l-0.432-0.432l-0.183-0.214l-0.411-0.522l-0.134-0.215l-0.33-0.575
			l-0.081-0.163l-0.157-0.439l-0.066-0.231l-0.135-0.505l-0.025-0.226c-0.008-0.074-0.02-0.149-0.033-0.223l-0.116-0.619
			l-0.033-0.523v-0.555l0.043-0.65l0.042-0.582l0.07-0.493l0.067-0.313l0.035-0.083c0.033-0.076,0.062-0.153,0.088-0.232l0.21-0.632
			l0.366-0.854l0.051-0.102l0.268-0.435l0.381-0.521l0.327-0.356l0.509-0.446l0.4-0.257l0.866-0.452l0.494-0.185l1.066-0.287
			L253.343,189.459L253.343,189.459z"/>
	</g>
	<g>
		<linearGradient id="SVGID_5_" gradientUnits="userSpaceOnUse" x1="327.2891" y1="221.2246" x2="300.5674" y2="174.9413">
			<stop  offset="0" style="stop-color:#ED1C24"/>
			<stop  offset="0.07" style="stop-color:#F6871F"/>
			<stop  offset="0.175" style="stop-color:#F78E30"/>
			<stop  offset="0.2848" style="stop-color:#DCE11F"/>
			<stop  offset="0.3944" style="stop-color:#7AC57D"/>
			<stop  offset="0.524" style="stop-color:#42BDED"/>
			<stop  offset="0.6777" style="stop-color:#4554A4"/>
			<stop  offset="0.8335" style="stop-color:#E60F8D"/>
			<stop  offset="1" style="stop-color:#ED1C24"/>
		</linearGradient>
		<path style="fill:url(#SVGID_5_);" d="M302.026,178.323l2.25,0.1l5.95,0.2l3.4-0.2h0.8l3.3,0.2h1.9l0.85,0.05l0.751,0.15l1.05,0.3
			l0.75,0.25l0.75,0.3l0.801,0.3l0.75,0.35l0.649,0.4l0.95,0.65l0.55,0.45l0.5,0.5l0.5,0.6l0.7,1l0.45,0.65l0.601,0.95l0.35,0.7
			l0.35,0.75l0.25,0.8l0.15,0.8l0.05,0.8l0.101,1.1v0.8l-0.051,0.8l-0.1,0.85l-0.15,0.85l-0.199,0.8l-0.301,0.75l-0.35,0.75
			l-0.45,0.75l-0.45,0.65l-0.449,0.6l-0.451,0.55l-0.8,0.8l-0.55,0.45l-1,0.55l-0.6,0.35l-0.65,0.35l-0.65,0.149l-0.4,0.15
			l0.201,0.4l1.799,2.55l0.451,0.601l1.8,2.449l0.5,0.601l1.8,2.5l0.5,0.601l1.551,1.8l0.449,0.55l0.25,0.551l-0.199,0.449
			l-0.65,0.2h-3.5l-2.75-0.05h-0.801l-2.25,0.1h-0.65l-0.449-0.199l-0.4-0.4l-1.6-2.25l-0.451-0.601l-1.6-2.149l-0.449-0.601
			l-1.4-2.3l-0.45-0.601l-1.601-2.149l-0.35-0.4l-0.301-0.15l-0.6-0.05l-1.6-0.101l-0.65,0.051l-0.4,0.3l-0.149,0.649l-0.101,2.751
			l0.051,0.8l0.199,2.801l0.051,0.8l0.05,1.2v0.8l-0.05,0.8l-0.1,0.6l-0.25,0.25l-0.551,0.15h-0.8l-2.4-0.15l-2.3,0.15h-0.801
			l-2.3-0.15l-0.6-0.1l-0.3-0.199l-0.1-0.5l-0.05-0.701l-0.05-0.75l0.1-1.3l0.05-0.8l0.2-2.7v-0.8l-0.15-2.701l-0.05-0.799
			l-0.05-2.651v-0.8l0.15-2.7v-0.8l-0.15-2.7v-0.8l0.15-2.7v-0.8l0.1-2.65v-0.8l-0.05-2.7v-0.8l-0.1-1.65l0.05-0.75l0.05-0.3
			l0.15-0.65l0.3-0.4l0.6-0.15l0.399-0.05L302.026,178.323 M313.727,195.424h0.801l3.3-0.2l1.101-0.2l0.649-0.25l0.601-0.35l0.5-0.6
			l0.35-0.75l0.2-0.8l0.05-0.8l-0.05-0.85l-0.101-0.85l-0.199-0.75l-0.351-0.75l-0.45-0.6l-0.55-0.45l-0.7-0.3l-1.1-0.25l-0.801-0.1
			l-2.5-0.05h-0.8l-2.55,0.15l-0.6,0.05l-0.351,0.15l-0.3,0.3l-0.051,0.55l0.051,1.15l0.1,0.8l0.1,0.85l0.051,0.85l-0.1,2.75
			l0.049,0.55l0.101,0.3l0.351,0.15l0.6,0.1L313.727,195.424 M302.026,175.323c-0.066,0-0.133,0.002-0.198,0.006l-0.751,0.05
			c-0.058,0.004-0.116,0.01-0.173,0.017l-0.399,0.05c-0.121,0.015-0.24,0.038-0.358,0.067l-0.6,0.15
			c-0.668,0.167-1.258,0.56-1.671,1.111l-0.3,0.4c-0.251,0.334-0.429,0.718-0.523,1.125l-0.15,0.65
			c-0.014,0.059-0.025,0.119-0.036,0.179l-0.05,0.3c-0.016,0.098-0.028,0.197-0.035,0.297l-0.05,0.75
			c-0.008,0.126-0.008,0.254-0.001,0.38l0.095,1.559v0.709c0,0.019,0,0.037,0,0.055l0.049,2.673v0.715l-0.098,2.594
			c-0.001,0.038-0.002,0.076-0.002,0.113v0.717l-0.146,2.617c-0.003,0.056-0.004,0.111-0.004,0.167v0.8
			c0,0.056,0.001,0.111,0.004,0.167l0.146,2.617v0.633l-0.146,2.617c-0.003,0.056-0.004,0.111-0.004,0.167v0.8
			c0,0.019,0,0.038,0,0.056l0.05,2.651c0.001,0.044,0.002,0.088,0.005,0.132l0.05,0.799l0.144,2.596v0.605l-0.192,2.59l-0.052,0.835
			l-0.097,1.256c-0.011,0.144-0.012,0.288-0.002,0.432l0.05,0.75l0.05,0.713c0.009,0.126,0.026,0.252,0.051,0.376l0.1,0.5
			c0.156,0.781,0.617,1.469,1.281,1.91l0.3,0.199c0.353,0.234,0.751,0.392,1.169,0.461l0.6,0.1c0.098,0.016,0.196,0.027,0.295,0.033
			l2.3,0.15c0.064,0.005,0.13,0.007,0.195,0.007h0.801c0.065,0,0.131-0.002,0.195-0.007l2.108-0.138l2.209,0.139
			c0.063,0.004,0.125,0.006,0.188,0.006h0.8c0.267,0,0.533-0.035,0.79-0.105l0.551-0.15c0.504-0.138,0.962-0.404,1.331-0.773
			l0.25-0.25c0.442-0.442,0.735-1.012,0.838-1.63l0.1-0.6c0.018-0.101,0.029-0.202,0.035-0.305l0.05-0.8
			c0.004-0.063,0.006-0.124,0.006-0.187v-0.8c0-0.041-0.001-0.083-0.003-0.124l-0.05-1.2c-0.001-0.022-0.002-0.044-0.003-0.066
			l-0.051-0.8l-0.201-2.823l-0.007-0.11l0.309,0.415l0.369,0.492l1.325,2.177c0.05,0.081,0.104,0.16,0.16,0.236l0.449,0.601
			l1.596,2.144l0.435,0.58l1.577,2.218c0.098,0.137,0.205,0.265,0.324,0.383l0.4,0.4c0.261,0.261,0.567,0.472,0.905,0.621
			l0.449,0.199c0.383,0.17,0.797,0.258,1.216,0.258h0.65c0.044,0,0.089-0.001,0.133-0.003l2.184-0.097h0.707l2.723,0.049
			c0.019,0.001,0.036,0.001,0.055,0.001h3.5c0.299,0,0.597-0.045,0.883-0.133l0.65-0.2c0.829-0.255,1.508-0.857,1.859-1.651
			l0.199-0.449c0.348-0.782,0.344-1.676-0.011-2.456l-0.25-0.551c-0.106-0.236-0.244-0.457-0.408-0.658l-0.449-0.55
			c-0.017-0.02-0.033-0.04-0.051-0.06l-1.534-1.781l-0.416-0.5l-1.738-2.414c-0.041-0.057-0.084-0.112-0.129-0.167l-0.442-0.53
			l-1.745-2.376l-0.406-0.54l0.283-0.155c0.161-0.089,0.313-0.191,0.455-0.308l0.55-0.45c0.077-0.063,0.15-0.13,0.221-0.2l0.8-0.8
			c0.07-0.069,0.137-0.143,0.199-0.219l0.451-0.55c0.027-0.034,0.055-0.069,0.081-0.104l0.449-0.6
			c0.022-0.029,0.044-0.06,0.064-0.089l0.45-0.65c0.037-0.054,0.073-0.108,0.106-0.165l0.45-0.75
			c0.054-0.089,0.103-0.182,0.146-0.276l0.35-0.75c0.023-0.05,0.045-0.1,0.065-0.151l0.301-0.75
			c0.052-0.127,0.094-0.259,0.127-0.392l0.199-0.8c0.017-0.067,0.031-0.134,0.043-0.202l0.15-0.85
			c0.01-0.058,0.019-0.115,0.025-0.173l0.1-0.85c0.006-0.053,0.011-0.106,0.015-0.159l0.051-0.8c0.004-0.063,0.006-0.126,0.006-0.19
			v-0.8c0-0.091-0.004-0.182-0.013-0.273l-0.097-1.057l-0.047-0.756c-0.008-0.123-0.022-0.246-0.046-0.368l-0.15-0.8
			c-0.021-0.115-0.05-0.229-0.085-0.341l-0.25-0.8c-0.04-0.127-0.088-0.251-0.145-0.373l-0.35-0.75
			c-0.011-0.024-0.022-0.048-0.035-0.073l-0.35-0.7c-0.045-0.09-0.094-0.178-0.147-0.263l-0.601-0.95
			c-0.022-0.036-0.046-0.071-0.07-0.105l-0.45-0.65l-0.709-1.012c-0.048-0.069-0.099-0.135-0.152-0.2l-0.5-0.6
			c-0.058-0.07-0.119-0.137-0.184-0.201l-0.5-0.5c-0.07-0.07-0.144-0.137-0.221-0.2l-0.55-0.45
			c-0.066-0.055-0.136-0.106-0.207-0.155l-0.95-0.65c-0.039-0.027-0.079-0.053-0.12-0.079l-0.649-0.4
			c-0.099-0.06-0.2-0.115-0.305-0.164l-0.75-0.35c-0.07-0.033-0.144-0.064-0.217-0.091l-0.77-0.288l-0.718-0.288
			c-0.055-0.022-0.11-0.042-0.167-0.061l-0.75-0.25c-0.041-0.014-0.083-0.026-0.124-0.039l-1.05-0.3
			c-0.078-0.022-0.157-0.042-0.237-0.057l-0.751-0.15c-0.135-0.027-0.271-0.045-0.409-0.053l-0.85-0.05
			c-0.06-0.003-0.118-0.005-0.178-0.005h-1.81l-3.209-0.195c-0.061-0.003-0.121-0.005-0.182-0.005h-0.8
			c-0.059,0-0.117,0.002-0.177,0.005l-3.262,0.192l-5.812-0.196l-2.218-0.098C302.115,175.324,302.07,175.323,302.026,175.323
			L302.026,175.323z M313.765,189.523h0.682l2.314,0.046l0.497,0.062l0.688,0.157l0.025,0.011l0.02,0.026l0.105,0.227l0.076,0.286
			l0.065,0.55l0.033,0.581l-0.021,0.344l-0.063,0.254l-0.016,0.034l-0.058,0.022l-0.646,0.118l-3.03,0.184h-0.595l-0.749-0.058
			l0.032-0.884c0.004-0.096,0.002-0.191-0.003-0.287l-0.051-0.85c-0.004-0.057-0.009-0.114-0.016-0.17l-0.071-0.605L313.765,189.523
			L313.765,189.523z"/>
	</g>
	<g>
		<linearGradient id="SVGID_6_" gradientUnits="userSpaceOnUse" x1="373.1641" y1="178.3643" x2="352.2522" y2="214.5847">
			<stop  offset="0" style="stop-color:#ED1C24"/>
			<stop  offset="0.07" style="stop-color:#F6871F"/>
			<stop  offset="0.175" style="stop-color:#F78E30"/>
			<stop  offset="0.2848" style="stop-color:#DCE11F"/>
			<stop  offset="0.3944" style="stop-color:#7AC57D"/>
			<stop  offset="0.524" style="stop-color:#42BDED"/>
			<stop  offset="0.6777" style="stop-color:#4554A4"/>
			<stop  offset="0.8335" style="stop-color:#E60F8D"/>
			<stop  offset="1" style="stop-color:#ED1C24"/>
		</linearGradient>
		<path style="fill:url(#SVGID_6_);" d="M366.975,178.473l0.551,0.1l0.1,0.3l0.051,0.55l0.1,1.3l0.05,0.8v4.9l0.05,2.7v0.8
			l-0.05,2.75v0.8l0.05,2.7v0.8l-0.1,2.7v4.35l0.15,2.701v0.8l-0.2,2.7v0.8l-0.05,2.751v0.549l-0.15,0.25l-0.4,0.15l-0.699,0.051
			l-2.551-0.051h-3.1l-2.5-0.199l-0.301-0.101l-0.15-0.149v-0.5l-0.1-1.25v-0.801l-0.05-0.75v-0.75l-0.149-2.7l0.049-0.8l0.15-2.701
			l0.051-0.799l-0.15-2.75v-0.8l-0.051-2.7v-4.3l-0.049-2.75v-0.8l0.049-2.7v-4.3l-0.1-2.75l0.15-0.55l0.3-0.2l0.5-0.05h0.399
			l0.75-0.05l1.201,0.05h0.8l2.3-0.1H366.975 M366.975,175.473h-3.1c-0.044,0-0.087,0.001-0.131,0.003l-2.234,0.097h-0.672
			l-1.139-0.048c-0.041-0.001-0.083-0.002-0.125-0.002c-0.067,0-0.134,0.002-0.201,0.007l-0.649,0.043h-0.299
			c-0.1,0-0.198,0.005-0.298,0.015l-0.5,0.05c-0.489,0.049-0.959,0.217-1.368,0.49l-0.3,0.2c-0.601,0.401-1.037,1.006-1.228,1.704
			l-0.15,0.55c-0.08,0.293-0.115,0.597-0.104,0.9l0.098,2.696v4.218l-0.049,2.673c0,0.018,0,0.036,0,0.054v0.8
			c0,0.018,0,0.036,0,0.053l0.049,2.724v4.273c0,0.019,0,0.038,0.001,0.057l0.05,2.672v0.772c0,0.055,0.002,0.109,0.005,0.164
			l0.141,2.573l-0.04,0.622l-0.151,2.725l-0.048,0.784c-0.008,0.116-0.008,0.232-0.001,0.349l0.145,2.617v0.667
			c0,0.066,0.002,0.133,0.007,0.199l0.043,0.65v0.701c0,0.079,0.003,0.159,0.01,0.238l0.09,1.131v0.381
			c0,0.799,0.318,1.565,0.886,2.128l0.15,0.149c0.327,0.325,0.726,0.571,1.163,0.717l0.301,0.101c0.23,0.077,0.47,0.126,0.713,0.146
			l2.5,0.199c0.079,0.007,0.159,0.01,0.238,0.01h3.069l2.521,0.05c0.02,0.001,0.04,0.001,0.06,0.001
			c0.072,0,0.145-0.003,0.218-0.008l0.698-0.051c0.287-0.021,0.569-0.083,0.838-0.184l0.4-0.15c0.633-0.238,1.167-0.683,1.516-1.262
			l0.15-0.25c0.281-0.468,0.43-1.002,0.43-1.547v-0.521l0.049-2.724c0.001-0.019,0.001-0.036,0.001-0.055v-0.688l0.192-2.59
			c0.005-0.073,0.008-0.147,0.008-0.222v-0.8c0-0.056-0.002-0.111-0.005-0.167l-0.146-2.617v-4.211l0.098-2.645
			c0.001-0.037,0.002-0.073,0.002-0.11v-0.8c0-0.019,0-0.037-0.001-0.055l-0.049-2.673v-0.745l0.05-2.723c0-0.018,0-0.036,0-0.054
			v-0.8c0-0.019,0-0.037-0.001-0.055l-0.049-2.673v-4.872c0-0.062-0.002-0.125-0.006-0.187l-0.05-0.8l-0.103-1.342l-0.055-0.597
			c-0.021-0.228-0.068-0.453-0.141-0.67l-0.1-0.3c-0.346-1.041-1.231-1.81-2.311-2.006l-0.551-0.1
			C367.334,175.489,367.154,175.473,366.975,175.473L366.975,175.473z"/>
	</g>
	<g>
		<linearGradient id="SVGID_7_" gradientUnits="userSpaceOnUse" x1="395.6523" y1="219.2969" x2="421.5182" y2="174.4959">
			<stop  offset="0" style="stop-color:#ED1C24"/>
			<stop  offset="0.07" style="stop-color:#F6871F"/>
			<stop  offset="0.175" style="stop-color:#F78E30"/>
			<stop  offset="0.2848" style="stop-color:#DCE11F"/>
			<stop  offset="0.3944" style="stop-color:#7AC57D"/>
			<stop  offset="0.524" style="stop-color:#42BDED"/>
			<stop  offset="0.6777" style="stop-color:#4554A4"/>
			<stop  offset="0.8335" style="stop-color:#E60F8D"/>
			<stop  offset="1" style="stop-color:#ED1C24"/>
		</linearGradient>
		<path style="fill:url(#SVGID_7_);" d="M416.025,178.522l3.55,0.2l2.7-0.05l0.65,0.1l0.25,0.55v0.35l0.05,0.85l-0.05,0.45
			l-0.051,0.55l-0.299,0.45l-1.551,2.3l-2,2.9l-0.4,0.7l-1.6,2.25l-0.4,0.7l-1.35,2.4l-0.45,0.65l-1.601,2.25l-0.449,0.65l-1.851,3
			l-1.5,2.35l-0.4,0.649l-1.55,2.301l-0.2,0.5l0.149,0.35l0.551,0.15l0.85,0.051h0.851l5.101-0.351h0.8l3.05,0.1h0.801l1.949-0.149
			h0.75l0.4,0.05l0.5,0.2l0.15,0.6v4.101l-0.1,3.3l-0.101,0.6l-0.45,0.201l-0.4,0.049h-0.699l-1.9-0.149h-0.75l-2.9,0.149l-3.7-0.25
			h-0.8l-2.9,0.15l-0.8,0.051l-2.9,0.049l-0.8-0.049l-2.9-0.15l-0.801-0.051h-2.899l-0.851,0.051l-1.25,0.1l-0.85,0.051h-0.75
			l-0.45-0.201l-0.101-0.6l-0.1-2v-0.5l0.2-0.45l1.601-2.25l0.449-0.7l1.5-2.35l0.4-0.7l1.6-2.251l0.4-0.699l1.45-2.4l0.399-0.7
			l1.551-2.35l0.4-0.7l2-2.9l1.699-2.3l2.051-2.95v-0.55l-0.6-0.2l-2.801-0.2h-0.8l-2.8,0.05h-0.801l-2.8,0.15h-1.851l-1.65-0.1
			l-0.549-0.2l-0.201-0.6v-0.4l-0.049-0.85l-0.051-1.7v-0.8l-0.1-3.05l0.25-0.5l0.65-0.05l6.25-0.2h0.8l2.751,0.05h0.799l2.701-0.05
			h0.8l2.75,0.15l3.55-0.2H416.025 M416.025,175.522h-0.801c-0.057,0-0.112,0.001-0.169,0.005l-3.384,0.191l-2.584-0.141
			c-0.054-0.003-0.108-0.004-0.163-0.004h-0.8c-0.019,0-0.037,0-0.056,0l-2.673,0.049h-0.744l-2.724-0.049c-0.019,0-0.036,0-0.055,0
			h-0.8c-0.032,0-0.063,0-0.096,0.001l-6.25,0.2c-0.045,0.001-0.091,0.004-0.136,0.007l-0.65,0.05
			c-1.05,0.082-1.98,0.708-2.452,1.649l-0.25,0.5c-0.223,0.446-0.331,0.941-0.314,1.44l0.098,3.001v0.751c0,0.03,0,0.06,0.001,0.089
			l0.051,1.7c0.001,0.028,0.002,0.055,0.004,0.083l0.044,0.764v0.314c0,0.324,0.053,0.646,0.155,0.954l0.201,0.6
			c0.29,0.866,0.959,1.552,1.816,1.865l0.549,0.2c0.272,0.099,0.558,0.159,0.848,0.176l1.65,0.1c0.061,0.003,0.12,0.005,0.181,0.005
			h1.851c0.054,0,0.107-0.001,0.16-0.004l2.72-0.146h0.721c0.018,0,0.035,0,0.054,0l1.818-0.032l-1.035,1.4
			c-0.02,0.026-0.038,0.053-0.057,0.08l-2,2.9c-0.048,0.069-0.093,0.14-0.134,0.213l-0.354,0.617l-1.498,2.271
			c-0.036,0.054-0.069,0.109-0.102,0.166l-0.381,0.667l-1.431,2.368c-0.013,0.02-0.024,0.04-0.036,0.061l-0.327,0.572l-1.515,2.132
			c-0.057,0.08-0.11,0.163-0.159,0.248l-0.364,0.637l-1.46,2.288l-0.407,0.634l-1.559,2.191c-0.116,0.163-0.216,0.338-0.297,0.521
			l-0.2,0.45c-0.171,0.384-0.259,0.799-0.259,1.219v0.5c0,0.05,0.001,0.1,0.004,0.149l0.1,2c0.006,0.116,0.019,0.232,0.037,0.347
			l0.101,0.6c0.167,0.991,0.817,1.833,1.735,2.243l0.45,0.201c0.385,0.172,0.802,0.261,1.224,0.261h0.75
			c0.06,0,0.119-0.002,0.179-0.005l0.85-0.051c0.021-0.002,0.04-0.003,0.06-0.005l1.221-0.097l0.731-0.044h2.715l0.706,0.045
			l2.935,0.152l0.772,0.047c0.061,0.004,0.121,0.006,0.183,0.006c0.017,0,0.033,0,0.051,0l2.9-0.049
			c0.046-0.001,0.093-0.003,0.14-0.006l0.8-0.051l2.788-0.145h0.62l3.6,0.243c0.067,0.005,0.135,0.007,0.202,0.007
			c0.052,0,0.103-0.001,0.154-0.004l2.823-0.146h0.555l1.783,0.141c0.078,0.006,0.157,0.009,0.235,0.009h0.699
			c0.121,0,0.242-0.008,0.363-0.022l0.4-0.049c0.297-0.036,0.587-0.116,0.86-0.238l0.45-0.201c0.918-0.41,1.568-1.252,1.735-2.243
			l0.101-0.6c0.022-0.134,0.035-0.27,0.04-0.405l0.1-3.3c0.001-0.03,0.001-0.061,0.001-0.091v-4.101c0-0.246-0.03-0.491-0.09-0.729
			l-0.15-0.6c-0.234-0.934-0.901-1.698-1.795-2.056l-0.5-0.2c-0.239-0.096-0.489-0.16-0.745-0.192l-0.4-0.05
			c-0.123-0.015-0.246-0.022-0.37-0.022h-0.75c-0.076,0-0.153,0.003-0.229,0.009l-1.835,0.141h-0.637l-3.001-0.098
			c-0.032-0.001-0.065-0.002-0.098-0.002h-0.8c-0.068,0-0.138,0.002-0.206,0.007l-2.098,0.145l0.981-1.538l1.835-2.973l0.405-0.586
			l1.576-2.216l0.472-0.68c0.054-0.077,0.104-0.157,0.149-0.238l1.35-2.4l0.315-0.552l1.515-2.13
			c0.057-0.08,0.109-0.163,0.158-0.248l0.338-0.591l1.929-2.796l1.568-2.327l0.311-0.466c0.274-0.414,0.442-0.89,0.488-1.384
			l0.048-0.523l0.047-0.423c0.019-0.167,0.023-0.337,0.014-0.505l-0.045-0.763v-0.262c0-0.428-0.092-0.851-0.269-1.241l-0.25-0.55
			c-0.419-0.923-1.275-1.571-2.277-1.725l-0.65-0.1c-0.15-0.023-0.302-0.035-0.454-0.035c-0.019,0-0.037,0-0.056,0l-2.588,0.048
			l-3.438-0.194C416.138,175.524,416.082,175.522,416.025,175.522L416.025,175.522z"/>
	</g>
	<g>
		<linearGradient id="SVGID_8_" gradientUnits="userSpaceOnUse" x1="450.3926" y1="174.6143" x2="475.8828" y2="218.7646">
			<stop  offset="0" style="stop-color:#ED1C24"/>
			<stop  offset="0.07" style="stop-color:#F6871F"/>
			<stop  offset="0.175" style="stop-color:#F78E30"/>
			<stop  offset="0.2848" style="stop-color:#DCE11F"/>
			<stop  offset="0.3944" style="stop-color:#7AC57D"/>
			<stop  offset="0.524" style="stop-color:#42BDED"/>
			<stop  offset="0.6777" style="stop-color:#4554A4"/>
			<stop  offset="0.8335" style="stop-color:#E60F8D"/>
			<stop  offset="1" style="stop-color:#ED1C24"/>
		</linearGradient>
		<path style="fill:url(#SVGID_8_);" d="M450.674,178.373l3.25,0.2l3.05-0.05h0.8l3,0.2h0.801l3-0.2h0.801l6.8,0.1l0.851-0.05
			l1.699-0.15h1.25l0.701,0.15l0.299,0.25l0.101,0.35l0.101,0.65v1.35l-0.101,1.25v0.85l0.05,1.25l0.051,0.75l-0.051,0.75l-0.1,0.6
			l-0.2,0.35l-0.25,0.2l-0.601,0.1h-0.399l-0.8,0.05l-4.701-0.1h-0.8l-2.55,0.1h-0.801l-2.6-0.1l-2.25-0.15h-0.75l-0.4,0.05
			l-0.5,0.1l-0.25,0.25l-0.05,0.3l-0.101,0.55l-0.1,1.2v0.8l0.051,0.85l0.049,0.55l0.101,0.35l0.2,0.25l0.55,0.15l1.601,0.1l1.6-0.1
			h4.75l5.601-0.3l1.55,0.1l0.551,0.1l0.3,0.25l0.149,0.3l0.051,0.55l0.1,0.85l0.05,0.85v1.65l0.101,1.15l-0.101,1.5l-0.1,0.6
			l-0.2,0.35l-0.35,0.25l-0.5,0.1h-1l-2.25-0.25l-0.801-0.05l-4,0.25l-3.2-0.1h-0.8l-2-0.15l-0.851,0.05l-0.601,0.05l-0.25,0.15
			l-0.149,0.35l-0.05,0.75l-0.15,1.25l-0.05,0.8v1.101l0.05,0.5l0.15,0.35l0.199,0.2l0.551,0.05l2.75,0.1h0.8l2.7-0.199l3.551,0.199
			h0.8l3.55-0.199h0.75l0.75,0.05l1.801,0.2l0.3,0.15l0.2,0.299l0.05,0.551l0.149,2.75l-0.049,0.8l-0.201,2.7l-0.049,0.5
			l-0.201,0.35l-0.25,0.201l-6.55,0.199h-0.8l-2.65-0.199l-0.801,0.049l-2.6,0.201l-0.8,0.049h-3.45l-2.601-0.199h-0.8l-4.301,0.25
			l-1.699-0.1l-0.601-0.101l-0.35-0.25l-0.15-0.351l-0.101-0.549l-0.1-1.15l-0.05-0.801l0.05-0.75v-0.75l0.2-2.65v-0.799l0.05-2.65
			l-0.05-0.801l-0.149-2.65l-0.051-0.8l0.1-2.7v-4.25l0.201-2.65l-0.051-0.8l-0.15-2.65l-0.049-0.8v-1.2l0.1-1.5v-0.75l0.15-2.6
			l0.05-0.7l0.149-0.4l0.25-0.2l0.4-0.05L450.674,178.373 M450.674,175.373c-0.152,0-0.306,0.012-0.456,0.035l-0.607,0.094
			l-0.357,0.044c-0.551,0.068-1.072,0.289-1.505,0.635l-0.25,0.2c-0.423,0.338-0.746,0.785-0.936,1.292l-0.149,0.4
			c-0.101,0.269-0.161,0.551-0.182,0.837l-0.05,0.7l-0.153,2.64c-0.003,0.058-0.005,0.116-0.005,0.173v0.65l-0.093,1.401
			c-0.005,0.066-0.007,0.132-0.007,0.199v1.2c0,0.061,0.002,0.122,0.006,0.183l0.049,0.8l0.149,2.638l0.039,0.612l-0.186,2.441
			c-0.006,0.076-0.009,0.151-0.009,0.227v4.195l-0.098,2.645c-0.004,0.101-0.002,0.201,0.004,0.301l0.051,0.8l0.148,2.629
			l0.043,0.697l-0.047,2.528c-0.001,0.02-0.001,0.038-0.001,0.057v0.686l-0.191,2.538c-0.006,0.075-0.009,0.15-0.009,0.226v0.65
			l-0.043,0.65c-0.009,0.129-0.009,0.257-0.001,0.386l0.05,0.801c0.001,0.023,0.003,0.048,0.005,0.072l0.1,1.15
			c0.009,0.095,0.021,0.188,0.038,0.282l0.101,0.549c0.041,0.221,0.105,0.436,0.194,0.642l0.15,0.351
			c0.216,0.504,0.566,0.938,1.012,1.258l0.35,0.25c0.372,0.266,0.799,0.443,1.25,0.519l0.601,0.101
			c0.105,0.018,0.212,0.029,0.319,0.036l1.699,0.1c0.059,0.003,0.117,0.005,0.176,0.005c0.058,0,0.116-0.002,0.174-0.005
			l4.214-0.245h0.598l2.486,0.19c0.076,0.006,0.153,0.009,0.229,0.009h3.45c0.061,0,0.122-0.002,0.183-0.006l0.8-0.049l2.648-0.204
			l0.547-0.033l2.448,0.184c0.074,0.006,0.149,0.009,0.225,0.009h0.8c0.03,0,0.061,0,0.091-0.001l6.55-0.199
			c0.653-0.021,1.281-0.253,1.79-0.662l0.25-0.201c0.29-0.233,0.534-0.519,0.72-0.841l0.201-0.35
			c0.212-0.369,0.344-0.78,0.385-1.204l0.049-0.5c0.003-0.023,0.005-0.046,0.007-0.069l0.201-2.7l0.051-0.84
			c0.007-0.115,0.008-0.23,0.001-0.346l-0.149-2.75c-0.002-0.035-0.004-0.071-0.007-0.107l-0.05-0.551
			c-0.046-0.5-0.216-0.981-0.496-1.399l-0.2-0.299c-0.288-0.431-0.684-0.779-1.147-1.012l-0.3-0.15
			c-0.317-0.159-0.66-0.261-1.014-0.3l-0.451-0.051c0.039-0.025,0.077-0.051,0.115-0.078l0.35-0.25
			c0.352-0.252,0.645-0.576,0.859-0.951l0.2-0.351c0.177-0.309,0.297-0.646,0.355-0.998l0.1-0.6
			c0.016-0.096,0.026-0.193,0.033-0.291l0.101-1.5c0.011-0.154,0.009-0.309-0.005-0.462l-0.089-1.02v-1.519
			c0-0.059-0.002-0.117-0.005-0.175l-0.05-0.85c-0.004-0.058-0.009-0.116-0.016-0.174l-0.095-0.813l-0.048-0.514
			c-0.034-0.37-0.137-0.73-0.303-1.063l-0.149-0.299c-0.185-0.372-0.444-0.701-0.764-0.966l-0.3-0.25
			c-0.007-0.006-0.015-0.012-0.022-0.019c0.373-0.11,0.722-0.292,1.026-0.536l0.25-0.2c0.295-0.236,0.542-0.525,0.729-0.853
			l0.2-0.35c0.177-0.309,0.297-0.647,0.355-0.998l0.1-0.6c0.016-0.096,0.026-0.192,0.033-0.289l0.051-0.75
			c0.009-0.135,0.009-0.271,0-0.405l-0.048-0.708l-0.046-1.148v-0.67l0.091-1.13c0.007-0.08,0.01-0.161,0.01-0.241v-1.35
			c0-0.154-0.012-0.307-0.035-0.459l-0.101-0.65c-0.02-0.125-0.047-0.248-0.081-0.37l-0.101-0.35
			c-0.166-0.575-0.5-1.088-0.959-1.472l-0.299-0.25c-0.374-0.313-0.818-0.53-1.296-0.632l-0.701-0.15
			c-0.207-0.044-0.417-0.067-0.629-0.067h-1.25c-0.088,0-0.177,0.004-0.265,0.012l-1.654,0.146l-0.696,0.041l-6.69-0.098l-0.845,0
			c-0.066,0-0.133,0.002-0.2,0.007l-2.899,0.193h-0.602l-2.899-0.193c-0.067-0.004-0.134-0.007-0.2-0.007h-0.8l-2.982,0.049
			l-3.133-0.193C450.797,175.375,450.735,175.373,450.674,175.373L450.674,175.373z"/>
	</g>
	<g>
		<linearGradient id="SVGID_9_" gradientUnits="userSpaceOnUse" x1="500.7725" y1="196.5234" x2="540.4248" y2="196.5234">
			<stop  offset="0" style="stop-color:#ED1C24"/>
			<stop  offset="0.07" style="stop-color:#F6871F"/>
			<stop  offset="0.175" style="stop-color:#F78E30"/>
			<stop  offset="0.2848" style="stop-color:#DCE11F"/>
			<stop  offset="0.3944" style="stop-color:#7AC57D"/>
			<stop  offset="0.524" style="stop-color:#42BDED"/>
			<stop  offset="0.6777" style="stop-color:#4554A4"/>
			<stop  offset="0.8335" style="stop-color:#E60F8D"/>
			<stop  offset="1" style="stop-color:#ED1C24"/>
		</linearGradient>
		<path style="fill:url(#SVGID_9_);" d="M506.273,178.323l2.25,0.1l5.949,0.2l3.4-0.2h0.801l3.3,0.2h1.9l0.85,0.05l0.751,0.15
			l1.049,0.3l0.75,0.25l0.75,0.3l0.801,0.3l0.75,0.35l0.65,0.4l0.949,0.65l0.551,0.45l0.5,0.5l0.5,0.6l0.699,1l0.451,0.65l0.6,0.95
			l0.35,0.7l0.35,0.75l0.25,0.8l0.15,0.8l0.051,0.8l0.1,1.1v0.8l-0.05,0.8l-0.101,0.85l-0.15,0.85l-0.199,0.8l-0.301,0.75
			l-0.35,0.75l-0.449,0.75l-0.451,0.65l-0.449,0.6l-0.45,0.55l-0.8,0.8l-0.551,0.45l-1,0.55l-0.6,0.35l-0.65,0.35l-0.65,0.149
			l-0.399,0.15l0.2,0.4l1.8,2.55l0.45,0.601l1.801,2.449l0.5,0.601l1.799,2.5l0.5,0.601l1.551,1.8l0.45,0.55l0.25,0.551l-0.2,0.449
			l-0.65,0.2h-3.5l-2.75-0.05h-0.801l-2.25,0.1h-0.649l-0.45-0.199l-0.4-0.4l-1.6-2.25l-0.45-0.601l-1.601-2.149l-0.449-0.601
			l-1.4-2.3l-0.449-0.601l-1.601-2.149l-0.351-0.4l-0.3-0.15l-0.6-0.05l-1.601-0.101l-0.65,0.051l-0.399,0.3l-0.149,0.649
			l-0.101,2.751l0.05,0.8l0.2,2.801l0.05,0.8l0.051,1.2v0.8l-0.051,0.8l-0.1,0.6l-0.25,0.25l-0.551,0.15h-0.799l-2.4-0.15
			l-2.301,0.15h-0.8l-2.3-0.15l-0.601-0.1l-0.3-0.199l-0.1-0.5l-0.051-0.701l-0.05-0.75l0.101-1.3l0.049-0.8l0.201-2.7v-0.8
			l-0.15-2.701l-0.051-0.799l-0.049-2.651v-0.8l0.149-2.7v-0.8l-0.149-2.7v-0.8l0.149-2.7v-0.8l0.101-2.65v-0.8l-0.051-2.7v-0.8
			l-0.1-1.65l0.05-0.75l0.05-0.3l0.15-0.65l0.3-0.4l0.601-0.15l0.399-0.05L506.273,178.323 M517.974,195.424h0.8l3.301-0.2l1.1-0.2
			l0.65-0.25l0.6-0.35l0.5-0.6l0.35-0.75l0.201-0.8l0.049-0.8l-0.049-0.85l-0.101-0.85l-0.2-0.75l-0.35-0.75l-0.45-0.6l-0.55-0.45
			l-0.701-0.3l-1.1-0.25l-0.8-0.1l-2.5-0.05h-0.8l-2.551,0.15l-0.6,0.05l-0.35,0.15l-0.301,0.3l-0.05,0.55l0.05,1.15l0.1,0.8
			l0.101,0.85l0.05,0.85l-0.1,2.75l0.05,0.55l0.101,0.3l0.35,0.15l0.6,0.1L517.974,195.424 M506.273,175.323
			c-0.066,0-0.133,0.002-0.198,0.006l-0.751,0.05c-0.058,0.004-0.115,0.01-0.173,0.017l-0.399,0.05
			c-0.12,0.015-0.24,0.038-0.357,0.067l-0.601,0.15c-0.668,0.167-1.259,0.56-1.672,1.111l-0.3,0.399
			c-0.25,0.334-0.429,0.717-0.522,1.124l-0.15,0.65c-0.014,0.062-0.026,0.123-0.037,0.186l-0.05,0.3
			c-0.016,0.097-0.027,0.194-0.033,0.292l-0.05,0.75c-0.009,0.126-0.009,0.253-0.001,0.379l0.094,1.56v0.71
			c0,0.019,0,0.038,0.001,0.057l0.05,2.672v0.715l-0.099,2.593c-0.001,0.038-0.002,0.076-0.002,0.114v0.717l-0.145,2.618
			c-0.003,0.055-0.005,0.11-0.005,0.166v0.8c0,0.055,0.002,0.11,0.005,0.166l0.145,2.617v0.634l-0.145,2.618
			c-0.003,0.055-0.005,0.11-0.005,0.166v0.8c0,0.019,0,0.037,0.001,0.055l0.049,2.651c0,0.045,0.002,0.09,0.005,0.135l0.051,0.799
			l0.145,2.594v0.605l-0.193,2.589l-0.051,0.84l-0.098,1.251c-0.011,0.144-0.012,0.287-0.002,0.431l0.05,0.75l0.052,0.719
			c0.009,0.124,0.025,0.247,0.05,0.369l0.1,0.5c0.156,0.783,0.617,1.471,1.282,1.913l0.3,0.199c0.353,0.234,0.751,0.392,1.169,0.461
			l0.601,0.1c0.098,0.016,0.196,0.027,0.296,0.033l2.3,0.15c0.064,0.005,0.13,0.007,0.195,0.007h0.8
			c0.065,0,0.131-0.002,0.195-0.007l2.109-0.138l2.209,0.139c0.063,0.004,0.125,0.006,0.188,0.006h0.799
			c0.267,0,0.533-0.035,0.79-0.105l0.551-0.15c0.504-0.138,0.962-0.404,1.331-0.773l0.25-0.25c0.442-0.442,0.735-1.012,0.838-1.63
			l0.1-0.6c0.017-0.1,0.028-0.2,0.035-0.301l0.051-0.8c0.004-0.063,0.006-0.127,0.006-0.19v-0.8c0-0.042-0.001-0.085-0.003-0.127
			l-0.051-1.2c-0.001-0.02-0.002-0.04-0.003-0.06l-0.05-0.8l-0.202-2.828l-0.007-0.11l0.31,0.416l0.367,0.491l1.326,2.178
			c0.05,0.081,0.104,0.16,0.16,0.236l0.449,0.601l1.597,2.145l0.434,0.578l1.577,2.219c0.098,0.137,0.205,0.265,0.324,0.383l0.4,0.4
			c0.262,0.262,0.569,0.473,0.907,0.622l0.45,0.199c0.382,0.169,0.796,0.257,1.214,0.257h0.649c0.044,0,0.089-0.001,0.133-0.003
			l2.184-0.097h0.707l2.723,0.049c0.019,0.001,0.036,0.001,0.055,0.001h3.5c0.299,0,0.597-0.045,0.883-0.133l0.65-0.2
			c0.827-0.255,1.505-0.854,1.857-1.646l0.2-0.449c0.35-0.783,0.347-1.68-0.009-2.461l-0.25-0.551
			c-0.107-0.236-0.245-0.459-0.41-0.66l-0.45-0.55c-0.016-0.02-0.032-0.039-0.049-0.058l-1.534-1.781l-0.416-0.499l-1.736-2.414
			c-0.042-0.058-0.085-0.113-0.13-0.168l-0.442-0.53l-1.747-2.377l-0.404-0.539l0.282-0.155c0.16-0.088,0.312-0.19,0.453-0.306
			l0.551-0.45c0.078-0.063,0.152-0.131,0.223-0.202l0.8-0.8c0.07-0.07,0.138-0.145,0.201-0.222l0.45-0.55
			c0.027-0.033,0.054-0.067,0.079-0.102l0.449-0.6c0.021-0.029,0.043-0.058,0.063-0.087l0.451-0.65
			c0.038-0.055,0.074-0.112,0.108-0.169l0.449-0.75c0.054-0.089,0.103-0.18,0.146-0.274l0.35-0.75c0.023-0.05,0.045-0.1,0.065-0.151
			l0.301-0.75c0.052-0.127,0.094-0.259,0.127-0.392l0.199-0.8c0.017-0.067,0.031-0.134,0.043-0.202l0.15-0.85
			c0.01-0.056,0.019-0.113,0.025-0.17l0.101-0.85c0.006-0.055,0.012-0.11,0.015-0.166l0.05-0.8c0.004-0.062,0.006-0.125,0.006-0.187
			v-0.8c0-0.09-0.004-0.181-0.012-0.271l-0.097-1.06l-0.048-0.759c-0.008-0.122-0.023-0.244-0.046-0.364l-0.15-0.8
			c-0.021-0.115-0.05-0.229-0.085-0.341l-0.25-0.8c-0.04-0.127-0.088-0.251-0.145-0.373l-0.35-0.75
			c-0.011-0.024-0.022-0.048-0.035-0.073l-0.35-0.7c-0.044-0.089-0.093-0.176-0.146-0.261l-0.6-0.95
			c-0.023-0.037-0.048-0.074-0.072-0.11l-0.451-0.65l-0.705-1.008c-0.049-0.069-0.1-0.136-0.154-0.201l-0.5-0.6
			c-0.058-0.07-0.119-0.137-0.184-0.201l-0.5-0.5c-0.07-0.071-0.145-0.138-0.223-0.202l-0.551-0.45
			c-0.065-0.054-0.134-0.104-0.203-0.153l-0.949-0.65c-0.041-0.027-0.082-0.054-0.124-0.08l-0.65-0.4
			c-0.098-0.06-0.198-0.114-0.303-0.163l-0.75-0.35c-0.07-0.033-0.144-0.064-0.217-0.091l-0.769-0.288l-0.719-0.288
			c-0.055-0.022-0.11-0.042-0.167-0.061l-0.75-0.25c-0.041-0.014-0.082-0.026-0.124-0.038l-1.049-0.3
			c-0.078-0.022-0.157-0.042-0.237-0.058l-0.751-0.15c-0.135-0.027-0.271-0.045-0.41-0.053l-0.85-0.05
			c-0.059-0.003-0.117-0.005-0.177-0.005h-1.81l-3.209-0.195c-0.061-0.003-0.121-0.005-0.182-0.005h-0.801
			c-0.059,0-0.117,0.002-0.177,0.005l-3.262,0.192l-5.811-0.196l-2.218-0.098C506.362,175.324,506.317,175.323,506.273,175.323
			L506.273,175.323z M518.012,189.523h0.682l2.314,0.046l0.496,0.062l0.688,0.157l0.026,0.011l0.019,0.024l0.106,0.228l0.076,0.288
			l0.064,0.547l0.034,0.582l-0.021,0.344l-0.063,0.253l-0.017,0.035l-0.057,0.022l-0.646,0.118l-3.031,0.184h-0.594l-0.75-0.058
			l0.032-0.884c0.004-0.094,0.002-0.189-0.003-0.284l-0.05-0.85c-0.004-0.059-0.009-0.118-0.016-0.177l-0.071-0.602L518.012,189.523
			L518.012,189.523z"/>
	</g>
</g>
<g>
</g>
<g>
</g>
<g>
</g>
<g>
</g>
<g>
</g>
<g>
</g>
</svg>
