<?xml version="1.0" encoding="utf-8"?>
<!-- Generator: Adobe Illustrator 16.0.0, SVG Export Plug-In . SVG Version: 6.00 Build 0)  -->
<!DOCTYPE svg PUBLIC "-//W3C//DTD SVG 1.1//EN" "http://www.w3.org/Graphics/SVG/1.1/DTD/svg11.dtd" [
	<!ENTITY ns_extend "http://ns.adobe.com/Extensibility/1.0/">
	<!ENTITY ns_ai "http://ns.adobe.com/AdobeIllustrator/10.0/">
	<!ENTITY ns_graphs "http://ns.adobe.com/Graphs/1.0/">
	<!ENTITY ns_vars "http://ns.adobe.com/Variables/1.0/">
	<!ENTITY ns_imrep "http://ns.adobe.com/ImageReplacement/1.0/">
	<!ENTITY ns_sfw "http://ns.adobe.com/SaveForWeb/1.0/">
	<!ENTITY ns_custom "http://ns.adobe.com/GenericCustomNamespace/1.0/">
	<!ENTITY ns_adobe_xpath "http://ns.adobe.com/XPath/1.0/">
]>
<svg version="1.1" id="Livello_1" xmlns:x="&ns_extend;" xmlns:i="&ns_ai;" xmlns:graph="&ns_graphs;"
	 xmlns="http://www.w3.org/2000/svg" xmlns:xlink="http://www.w3.org/1999/xlink" x="0px" y="0px" width="600px" height="400px"
	 viewBox="0 0 600 400" enable-background="new 0 0 600 400" xml:space="preserve">
<metadata>
	<sfw  xmlns="&ns_sfw;">
		<slices></slices>
		<sliceSourceBounds  width="484.643" height="46" y="180.827" x="56.282" bottomLeftOrigin="true"></sliceSourceBounds>
	</sfw>
</metadata>
<g>
	<g>
		<linearGradient id="SVGID_1_" gradientUnits="userSpaceOnUse" x1="98.7319" y1="196.6233" x2="56.7827" y2="196.6233">
			<stop  offset="0" style="stop-color:#ED1C24"/>
			<stop  offset="0.07" style="stop-color:#F6871F"/>
			<stop  offset="0.175" style="stop-color:#F78E30"/>
			<stop  offset="0.2848" style="stop-color:#DCE11F"/>
			<stop  offset="0.3944" style="stop-color:#7AC57D"/>
			<stop  offset="0.524" style="stop-color:#42BDED"/>
			<stop  offset="0.6777" style="stop-color:#4554A4"/>
			<stop  offset="0.8335" style="stop-color:#E60F8D"/>
			<stop  offset="1" style="stop-color:#ED1C24"/>
		</linearGradient>
		<path fill="url(#SVGID_1_)" d="M80.082,177.673l0.75,0.05l1.1,0.05l1.85,0.25l0.7,0.15l1.15,0.2l1.75,0.5l0.7,0.3l1.1,0.649
			l0.7,0.4l1.3,0.9l1.55,1.1l0.55,0.4l0.3,0.25l0.35,0.35l0.1,0.4l-0.05,0.399l-0.3,0.4l-0.45,0.55l-0.55,0.55l-0.55,0.5l-0.55,0.45
			l-0.55,0.55l-0.85,1l-0.55,0.601l-0.25,0.25l-0.45,0.399l-0.35,0.15l-0.35,0.05l-0.35-0.1l-0.55-0.301l-0.95-0.699l-0.65-0.351
			l-1.1-0.5l-0.7-0.25l-1.1-0.3l-0.75-0.15l-1.25-0.1h-0.8l-1.1,0.1l-0.8,0.2l-1.1,0.351l-0.75,0.3l-0.65,0.25l-1,0.5l-0.7,0.5
			l-0.35,0.3l-0.6,0.65l-0.45,0.699l-0.35,0.65l-0.35,0.7l-0.3,0.75l-0.25,0.8l-0.15,0.85l-0.1,0.75l-0.1,1.5v0.801l0.05,1.25
			l0.05,0.75l0.25,1.149l0.25,0.75l0.35,0.852l0.4,0.75l0.75,1.101l0.55,0.6l0.95,0.801l0.65,0.449l1,0.5l0.75,0.302l1.1,0.299
			l0.8,0.149l1.2,0.052h1.15l0.7-0.15l0.4-0.1l0.75-0.25l1.25-0.451l0.8-0.351l0.75-0.35l0.65-0.351l0.95-0.601l0.65-0.501l0.5-0.35
			l0.3-0.101l0.45,0.101l0.55,0.35l0.55,0.501l0.2,0.3l0.5,0.551l0.8,1.001l0.5,0.6l1.35,1.55l0.45,0.602l0.25,0.25l0.25,0.448
			v0.301l-0.4,0.398l-0.9,0.801l-0.6,0.449l-0.95,0.7l-0.6,0.4l-1,0.55l-0.65,0.351l-1.15,0.549l-0.75,0.25l-0.85,0.25l-0.85,0.15
			l-1.25,0.25l-1.75,0.2l-0.9,0.05l-1.25,0.1h-2.6l-0.85-0.049l-0.85-0.101l-0.85-0.149l-0.85-0.201l-0.75-0.25l-2.25-0.6l-1.1-0.4
			l-0.65-0.299l-0.95-0.551l-0.6-0.449l-0.65-0.451l-0.7-0.448l-1.3-1.102l-0.6-0.601l-0.55-0.649l-0.55-0.75l-0.45-0.7l-0.4-0.698
			l-0.35-0.701l-0.5-1.05l-0.75-2.102l-0.35-1l-0.5-1.5l-0.1-0.75l-0.05-1.149l0.05-0.75l0.05-0.801v-0.85l0.1-1.7l0.05-0.8
			l0.15-0.75l0.2-1.1l0.2-0.75l0.25-0.75l0.25-0.7l0.35-1l0.35-0.7l0.35-0.75l0.4-0.75l0.45-0.75l0.45-0.7l0.5-0.649l0.55-0.7
			l0.6-0.65l0.6-0.55l0.65-0.55l0.6-0.5l1.6-1.101l0.65-0.399l0.7-0.4l1.5-0.7l0.85-0.3l0.8-0.25l1.7-0.399l0.85-0.15l0.85-0.1
			l1.55-0.101L80.082,177.673 M80.082,173.673c-0.12,0-0.241,0.005-0.361,0.016l-1.049,0.095l-1.499,0.097
			c-0.069,0.004-0.138,0.011-0.206,0.019l-0.85,0.1c-0.078,0.009-0.155,0.02-0.231,0.034l-0.85,0.15
			c-0.073,0.013-0.146,0.028-0.218,0.045l-1.7,0.399c-0.093,0.022-0.186,0.047-0.278,0.076l-0.8,0.25
			c-0.046,0.014-0.092,0.029-0.138,0.045l-0.85,0.3c-0.123,0.043-0.243,0.093-0.361,0.148l-1.5,0.7
			c-0.1,0.047-0.199,0.098-0.295,0.153l-0.7,0.4c-0.036,0.021-0.072,0.042-0.107,0.064l-0.65,0.399
			c-0.059,0.036-0.116,0.073-0.172,0.112l-1.6,1.101c-0.102,0.07-0.2,0.144-0.294,0.223l-0.6,0.5l-0.673,0.569
			c-0.04,0.034-0.08,0.069-0.119,0.104l-0.6,0.55c-0.083,0.076-0.162,0.154-0.238,0.237l-0.6,0.65
			c-0.072,0.078-0.141,0.159-0.206,0.242l-0.55,0.7l-0.523,0.679c-0.069,0.09-0.134,0.182-0.195,0.277l-0.45,0.7
			c-0.022,0.035-0.044,0.07-0.066,0.106l-0.45,0.75c-0.034,0.057-0.067,0.115-0.098,0.173l-0.4,0.75
			c-0.034,0.063-0.066,0.128-0.097,0.194l-0.326,0.7l-0.326,0.651c-0.076,0.151-0.142,0.308-0.198,0.467l-0.35,1l-0.242,0.677
			c-0.009,0.027-0.019,0.054-0.028,0.08l-0.25,0.75c-0.025,0.077-0.049,0.155-0.07,0.233l-0.2,0.75
			c-0.028,0.105-0.052,0.21-0.071,0.317l-0.193,1.065l-0.143,0.715c-0.035,0.176-0.059,0.354-0.07,0.533l-0.05,0.8l-0.101,1.716
			c-0.004,0.078-0.007,0.156-0.007,0.235v0.726l-0.042,0.676l-0.049,0.733c-0.01,0.146-0.011,0.292-0.005,0.438l0.05,1.149
			c0.005,0.119,0.016,0.238,0.031,0.356l0.1,0.75c0.033,0.25,0.09,0.496,0.17,0.735l0.5,1.5c0.006,0.02,0.013,0.038,0.02,0.057
			l0.35,1l0.758,2.125c0.045,0.128,0.098,0.253,0.156,0.375l0.5,1.05c0.01,0.022,0.021,0.044,0.032,0.065l0.35,0.701
			c0.035,0.069,0.071,0.138,0.109,0.205l0.4,0.698c0.034,0.058,0.068,0.115,0.104,0.171l0.45,0.7
			c0.045,0.07,0.092,0.139,0.141,0.205l0.55,0.75c0.055,0.075,0.112,0.147,0.172,0.219l0.55,0.649
			c0.071,0.084,0.146,0.164,0.223,0.242l0.6,0.601c0.078,0.078,0.159,0.153,0.244,0.225l1.3,1.102
			c0.136,0.115,0.279,0.221,0.429,0.317l0.637,0.407l0.53,0.368l0.543,0.406c0.125,0.094,0.255,0.18,0.39,0.258l0.95,0.551
			c0.109,0.063,0.222,0.122,0.337,0.175l0.65,0.299c0.099,0.045,0.199,0.087,0.301,0.124l1.1,0.4
			c0.111,0.04,0.224,0.076,0.338,0.106l2.132,0.568l0.633,0.211c0.113,0.037,0.228,0.07,0.344,0.098l0.85,0.201
			c0.076,0.018,0.152,0.033,0.229,0.047l0.85,0.149c0.074,0.013,0.148,0.024,0.222,0.033l0.85,0.101
			c0.08,0.009,0.161,0.017,0.241,0.021l0.85,0.049c0.077,0.005,0.153,0.007,0.229,0.007h2.6c0.106,0,0.212-0.004,0.318-0.013
			l1.202-0.096l0.852-0.047c0.078-0.005,0.156-0.011,0.234-0.021l1.75-0.2c0.111-0.012,0.221-0.029,0.33-0.052l1.206-0.241
			l0.806-0.143c0.146-0.025,0.29-0.06,0.431-0.101l0.85-0.25c0.046-0.014,0.091-0.028,0.137-0.043l0.75-0.25
			c0.156-0.053,0.309-0.114,0.458-0.185l1.15-0.549c0.059-0.028,0.117-0.059,0.175-0.089l0.65-0.351l1.029-0.566
			c0.101-0.055,0.199-0.114,0.294-0.179l0.6-0.4c0.051-0.034,0.102-0.069,0.152-0.106l0.95-0.7l0.624-0.467
			c0.09-0.067,0.178-0.139,0.262-0.214l0.9-0.801c0.056-0.05,0.111-0.102,0.164-0.154l0.4-0.398
			c0.753-0.751,1.177-1.771,1.177-2.834v-0.301c0-0.682-0.174-1.353-0.507-1.948l-0.25-0.448c-0.18-0.323-0.403-0.619-0.665-0.88
			l-0.047-0.047l-0.278-0.371c-0.06-0.08-0.122-0.158-0.188-0.232l-1.322-1.518l-0.446-0.535l-0.775-0.969
			c-0.052-0.065-0.106-0.129-0.163-0.19l-0.298-0.329l-0.034-0.051c-0.181-0.271-0.395-0.521-0.636-0.74l-0.55-0.501
			c-0.17-0.154-0.353-0.294-0.546-0.417l-0.55-0.35c-0.391-0.249-0.822-0.427-1.274-0.528l-0.45-0.101
			c-0.288-0.064-0.58-0.096-0.872-0.096c-0.431,0-0.86,0.069-1.272,0.208l-0.3,0.101c-0.363,0.122-0.706,0.295-1.02,0.514l-0.5,0.35
			c-0.051,0.036-0.101,0.072-0.15,0.11l-0.502,0.388l-0.676,0.427l-0.425,0.229l-0.602,0.28l-0.635,0.279l-1.079,0.389l-0.555,0.186
			l-0.187,0.046l-0.221,0.048h-0.639l-0.831-0.036l-0.362-0.067l-0.718-0.195l-0.382-0.153l-0.602-0.301l-0.26-0.18l-0.607-0.512
			l-0.181-0.198l-0.466-0.684l-0.204-0.381l-0.221-0.54l-0.139-0.417l-0.142-0.651l-0.027-0.401l-0.044-1.116v-0.588l0.083-1.236
			l0.071-0.535l0.091-0.513l0.127-0.408l0.181-0.451l0.249-0.497l0.248-0.46l0.177-0.275l0.205-0.222l0.038-0.033l0.301-0.215
			l0.546-0.273l0.47-0.18c0.017-0.006,0.033-0.013,0.05-0.02l0.617-0.247l0.842-0.269l0.376-0.094l0.611-0.055h0.46l0.855,0.068
			l0.384,0.077l0.82,0.224l0.397,0.142l0.824,0.375l0.284,0.153l0.725,0.533c0.144,0.106,0.294,0.202,0.451,0.288l0.55,0.301
			c0.262,0.143,0.539,0.256,0.825,0.338l0.35,0.1c0.357,0.102,0.726,0.153,1.095,0.153c0.188,0,0.376-0.013,0.563-0.04l0.35-0.05
			c0.35-0.05,0.691-0.146,1.015-0.285l0.35-0.15c0.394-0.169,0.757-0.4,1.078-0.685l0.45-0.399c0.059-0.052,0.116-0.106,0.172-0.162
			l0.25-0.25c0.041-0.042,0.081-0.083,0.121-0.126l0.55-0.601c0.034-0.037,0.066-0.074,0.098-0.111l0.746-0.877l0.295-0.295
			l0.396-0.324c0.053-0.043,0.105-0.088,0.156-0.134l0.55-0.5c0.047-0.043,0.093-0.087,0.139-0.132l0.55-0.55
			c0.093-0.094,0.182-0.192,0.266-0.294l0.45-0.55c0.037-0.045,0.072-0.09,0.107-0.137l0.3-0.4c0.416-0.555,0.68-1.209,0.767-1.897
			l0.05-0.399c0.062-0.491,0.032-0.99-0.088-1.47l-0.1-0.4c-0.176-0.704-0.54-1.347-1.054-1.86l-0.35-0.35
			c-0.085-0.084-0.173-0.165-0.265-0.242l-0.3-0.25c-0.067-0.056-0.137-0.11-0.208-0.162l-0.55-0.4l-1.589-1.127l-1.337-0.927
			c-0.094-0.065-0.191-0.126-0.291-0.183l-0.676-0.387l-1.077-0.635c-0.147-0.087-0.301-0.165-0.459-0.233l-0.7-0.3
			c-0.155-0.066-0.313-0.123-0.475-0.169l-1.75-0.5c-0.136-0.039-0.274-0.07-0.413-0.095l-1.072-0.187l-0.623-0.134
			c-0.101-0.022-0.203-0.04-0.305-0.053l-1.85-0.25c-0.118-0.016-0.236-0.027-0.355-0.032l-1.058-0.048l-0.708-0.047
			C80.259,173.676,80.17,173.673,80.082,173.673L80.082,173.673z"/>
	</g>
	<g>
		<linearGradient id="SVGID_2_" gradientUnits="userSpaceOnUse" x1="158.6279" y1="208.6926" x2="116.6663" y2="184.4661">
			<stop  offset="0" style="stop-color:#ED1C24"/>
			<stop  offset="0.07" style="stop-color:#F6871F"/>
			<stop  offset="0.175" style="stop-color:#F78E30"/>
			<stop  offset="0.2848" style="stop-color:#DCE11F"/>
			<stop  offset="0.3944" style="stop-color:#7AC57D"/>
			<stop  offset="0.524" style="stop-color:#42BDED"/>
			<stop  offset="0.6777" style="stop-color:#4554A4"/>
			<stop  offset="0.8335" style="stop-color:#E60F8D"/>
			<stop  offset="1" style="stop-color:#ED1C24"/>
		</linearGradient>
		<path fill="url(#SVGID_2_)" d="M137.931,177.724l1.5,0.1l1.2,0.051l0.85,0.1l0.85,0.15l0.85,0.199l0.85,0.15l0.8,0.2l0.75,0.2
			l0.75,0.25l1.05,0.399l0.7,0.3l1.65,0.95l0.65,0.45l0.65,0.5l0.85,0.8l0.55,0.5l0.55,0.55l0.45,0.601l0.7,0.95l0.4,0.649
			l0.35,0.65l0.4,0.649l0.55,1l0.4,0.65l0.35,0.75l0.25,0.7l0.25,1.149l0.3,1.5l0.1,0.851l0.15,0.85l0.1,1.7l-0.05,0.8l-0.1,1.15
			l-0.1,0.75l-0.3,1.5l-0.1,1.149l-0.1,0.75l-0.15,0.801l-0.2,0.75l-0.5,1.05l-0.35,0.7l-1.35,2.251l-0.45,0.648l-0.5,0.649
			l-0.5,0.551l-0.8,0.851l-0.55,0.5l-0.65,0.5l-0.6,0.449l-0.9,0.602l-0.65,0.399l-0.75,0.399l-0.7,0.3l-1,0.4l-0.75,0.198l-1.6,0.5
			l-0.85,0.25l-0.8,0.201l-0.85,0.199l-0.85,0.15l-0.85,0.05h-2.7l-1.7-0.102l-1.65-0.198l-0.7-0.15l-0.75-0.199l-2.7-0.899
			l-0.8-0.25l-0.85-0.351l-1.6-0.701l-0.75-0.398l-0.75-0.45l-0.65-0.5l-0.65-0.55l-0.6-0.65l-0.55-0.648l-1.35-1.352l-0.5-0.601
			l-0.5-0.649l-0.4-0.648l-0.4-1.001l-0.75-2.25l-0.3-1.051l-0.15-0.75l-0.15-0.8l-0.15-0.75l-0.15-1.1l-0.05-0.75l-0.05-0.851
			v-0.85l0.05-0.85l0.05-0.9l0.1-0.85l0.15-0.851l0.2-0.85l0.25-0.851l0.25-0.75l0.3-0.8l0.35-1.149l0.35-0.801l0.2-0.449l0.4-0.75
			l0.7-1.101l0.5-0.7l0.25-0.399l0.6-0.601l0.85-0.699l0.65-0.5l0.65-0.45l1.5-1l0.65-0.4l0.7-0.399l0.7-0.351l1.05-0.45l0.7-0.25
			l0.75-0.25l0.75-0.199l1.9-0.351l0.75-0.149l2.5-0.301L137.931,177.724 M138.031,206.774l1.25-0.101l0.8-0.101l1.1-0.25l0.7-0.3
			l1.1-0.7l0.6-0.449l0.8-0.801l0.5-0.551l0.65-0.797l0.45-0.701l0.5-1.1l0.3-0.75l0.25-1.15l0.1-0.75l0.1-1.199v-0.851l-0.05-0.85
			l-0.05-0.801l-0.3-1.5l-0.2-0.699l-0.55-1.101l-0.4-0.649l-0.7-0.9l-0.5-0.55l-0.75-0.8l-0.55-0.45l-1.3-0.75l-0.7-0.3l-0.8-0.25
			l-0.8-0.15l-1.6-0.1l-0.75,0.05l-1.1,0.05l-0.75,0.15l-1.3,0.35l-0.8,0.3l-1.15,0.601l-0.7,0.45l-0.8,0.699l-0.55,0.601
			l-0.55,0.75l-0.4,0.649l-0.15,0.301l-0.45,1.05l-0.25,0.75l-0.15,0.35l-0.15,0.7l-0.1,0.7l-0.05,0.7l-0.05,0.75v0.75l0.05,0.8
			l0.15,0.8l0.05,0.45l0.2,0.75l0.1,0.35l0.25,0.7l0.2,0.4l0.4,0.698l0.25,0.4l0.55,0.7l0.3,0.351l0.6,0.601l1,0.85l0.7,0.45
			l0.8,0.399l0.75,0.301l1.05,0.35l0.75,0.15l1.25,0.149L138.031,206.774 M137.931,173.724c-0.083,0-0.166,0.002-0.249,0.008
			l-1.6,0.1c-0.077,0.005-0.153,0.012-0.229,0.021l-2.5,0.301c-0.102,0.012-0.203,0.028-0.304,0.048l-0.723,0.144l-1.872,0.345
			c-0.101,0.019-0.201,0.041-0.301,0.068l-0.75,0.199c-0.08,0.021-0.16,0.045-0.238,0.071l-0.75,0.25
			c-0.026,0.009-0.053,0.019-0.08,0.028l-0.7,0.25c-0.078,0.028-0.155,0.058-0.231,0.091l-1.05,0.45
			c-0.072,0.031-0.144,0.064-0.214,0.1l-0.7,0.351c-0.064,0.032-0.128,0.066-0.191,0.102l-0.7,0.399
			c-0.039,0.022-0.078,0.045-0.116,0.069l-0.65,0.4c-0.041,0.025-0.081,0.051-0.121,0.078l-1.5,1c-0.02,0.013-0.04,0.026-0.059,0.04
			l-0.65,0.45c-0.055,0.038-0.108,0.077-0.161,0.118l-0.65,0.5c-0.035,0.026-0.068,0.054-0.102,0.081l-0.85,0.699
			c-0.101,0.083-0.197,0.17-0.289,0.262l-0.6,0.601c-0.213,0.213-0.401,0.45-0.561,0.705l-0.186,0.296l-0.429,0.601
			c-0.042,0.059-0.082,0.118-0.12,0.179l-0.7,1.101c-0.054,0.085-0.105,0.173-0.153,0.262l-0.4,0.75
			c-0.045,0.085-0.087,0.171-0.126,0.259l-0.2,0.449l-0.36,0.823c-0.062,0.143-0.116,0.289-0.162,0.437l-0.313,1.029l-0.256,0.682
			c-0.017,0.046-0.034,0.092-0.049,0.139l-0.25,0.75c-0.015,0.045-0.029,0.091-0.043,0.137l-0.25,0.851
			c-0.02,0.07-0.039,0.14-0.056,0.21l-0.2,0.85c-0.017,0.074-0.033,0.148-0.046,0.223l-0.15,0.851
			c-0.013,0.075-0.024,0.15-0.033,0.226l-0.1,0.85c-0.01,0.083-0.017,0.165-0.021,0.248l-0.05,0.9l-0.049,0.834
			c-0.004,0.079-0.007,0.157-0.007,0.236v0.85c0,0.079,0.002,0.158,0.007,0.236l0.05,0.851l0.052,0.779
			c0.006,0.092,0.016,0.184,0.028,0.275l0.15,1.1c0.011,0.082,0.025,0.165,0.042,0.246l0.146,0.726l0.145,0.775l0.159,0.797
			c0.021,0.105,0.046,0.21,0.076,0.313l0.3,1.051c0.016,0.056,0.034,0.112,0.052,0.167l0.75,2.25
			c0.025,0.074,0.052,0.148,0.081,0.221l0.4,1.001c0.085,0.214,0.189,0.419,0.309,0.614l0.4,0.648
			c0.073,0.117,0.151,0.231,0.235,0.341l0.5,0.649c0.031,0.04,0.063,0.08,0.095,0.119l0.5,0.601
			c0.078,0.093,0.159,0.182,0.244,0.268l1.235,1.235l0.444,0.524c0.036,0.043,0.073,0.085,0.111,0.126l0.6,0.65
			c0.112,0.121,0.231,0.234,0.356,0.341l0.65,0.55c0.047,0.04,0.095,0.079,0.145,0.116l0.65,0.5c0.122,0.094,0.249,0.181,0.38,0.26
			l0.75,0.45c0.06,0.036,0.121,0.07,0.182,0.103l0.75,0.398c0.088,0.048,0.179,0.091,0.271,0.132l1.6,0.701
			c0.027,0.012,0.054,0.022,0.081,0.034l0.85,0.351c0.108,0.045,0.219,0.085,0.332,0.119l0.764,0.239l2.666,0.888
			c0.079,0.026,0.158,0.05,0.237,0.071l0.75,0.199c0.062,0.017,0.124,0.031,0.187,0.045l0.7,0.15
			c0.12,0.025,0.241,0.046,0.363,0.061l1.65,0.198c0.079,0.01,0.159,0.017,0.238,0.021l1.7,0.102
			c0.08,0.005,0.159,0.007,0.239,0.007h2.7c0.078,0,0.156-0.002,0.234-0.007l0.85-0.05c0.155-0.009,0.31-0.027,0.463-0.055
			l0.85-0.15c0.072-0.013,0.144-0.027,0.215-0.044l0.85-0.199c0.021-0.005,0.042-0.01,0.063-0.016l0.8-0.201
			c0.052-0.013,0.103-0.026,0.154-0.042l0.85-0.25c0.021-0.006,0.043-0.013,0.064-0.019l1.515-0.474l0.664-0.176
			c0.158-0.042,0.313-0.093,0.465-0.153l1-0.4c0.029-0.012,0.059-0.024,0.087-0.037l0.7-0.3c0.104-0.044,0.206-0.093,0.306-0.146
			l0.75-0.399c0.072-0.038,0.144-0.079,0.214-0.122l0.65-0.399c0.043-0.027,0.086-0.055,0.129-0.083l0.9-0.602
			c0.059-0.039,0.117-0.08,0.174-0.123l0.6-0.449c0.014-0.011,0.028-0.021,0.042-0.032l0.65-0.5c0.086-0.066,0.17-0.136,0.251-0.209
			l0.55-0.5c0.078-0.071,0.152-0.145,0.224-0.221l0.8-0.851c0.016-0.018,0.032-0.034,0.047-0.052l0.5-0.551
			c0.073-0.08,0.142-0.163,0.208-0.248l0.5-0.649c0.04-0.052,0.079-0.105,0.116-0.159l0.45-0.648
			c0.051-0.073,0.099-0.148,0.145-0.225l1.35-2.251c0.052-0.087,0.102-0.177,0.147-0.268l0.35-0.7
			c0.012-0.023,0.022-0.046,0.034-0.069l0.5-1.05c0.105-0.221,0.19-0.451,0.253-0.688l0.2-0.75c0.026-0.098,0.048-0.196,0.067-0.295
			l0.15-0.801c0.013-0.069,0.024-0.138,0.033-0.207l0.1-0.75c0.008-0.061,0.015-0.121,0.02-0.183l0.081-0.929l0.256-1.283
			c0.017-0.084,0.031-0.169,0.042-0.255l0.1-0.75c0.008-0.061,0.015-0.122,0.02-0.183l0.1-1.15c0.003-0.033,0.005-0.065,0.007-0.098
			l0.05-0.8c0.01-0.161,0.01-0.323,0.001-0.484l-0.1-1.7c-0.009-0.154-0.027-0.308-0.054-0.46l-0.13-0.736l-0.086-0.736
			c-0.013-0.106-0.029-0.212-0.05-0.317l-0.3-1.5c-0.004-0.022-0.009-0.044-0.014-0.066l-0.25-1.149
			c-0.037-0.168-0.084-0.333-0.142-0.495l-0.25-0.7c-0.042-0.118-0.09-0.233-0.143-0.347l-0.35-0.75
			c-0.064-0.139-0.137-0.273-0.217-0.403l-0.349-0.568l-0.504-0.916c-0.031-0.057-0.064-0.113-0.098-0.168l-0.339-0.551
			l-0.295-0.548c-0.037-0.068-0.075-0.135-0.116-0.201l-0.4-0.649c-0.058-0.094-0.12-0.186-0.186-0.275l-0.7-0.95l-0.47-0.627
			c-0.114-0.152-0.238-0.295-0.372-0.43l-0.55-0.55c-0.045-0.045-0.091-0.089-0.139-0.132l-0.524-0.477l-0.825-0.776
			c-0.096-0.091-0.197-0.177-0.302-0.257l-0.65-0.5c-0.053-0.041-0.106-0.08-0.161-0.118l-0.65-0.45
			c-0.091-0.063-0.186-0.123-0.282-0.178l-1.65-0.95c-0.136-0.079-0.277-0.149-0.422-0.211l-0.7-0.3
			c-0.05-0.021-0.101-0.042-0.152-0.062l-1.05-0.399c-0.052-0.02-0.104-0.039-0.157-0.056l-0.75-0.25
			c-0.077-0.025-0.155-0.049-0.233-0.07l-0.75-0.2c-0.021-0.005-0.041-0.011-0.061-0.016l-0.8-0.2
			c-0.09-0.022-0.182-0.042-0.273-0.059l-0.741-0.131l-0.743-0.174c-0.071-0.017-0.144-0.032-0.216-0.044l-0.85-0.15
			c-0.077-0.014-0.154-0.025-0.231-0.034l-0.85-0.1c-0.098-0.012-0.197-0.02-0.296-0.024l-1.151-0.048l-1.452-0.097
			C138.108,173.727,138.02,173.724,137.931,173.724L137.931,173.724z M136.617,190.456l0.794-0.036
			c0.028-0.001,0.056-0.003,0.084-0.005l0.493-0.033l1.096,0.068l0.326,0.061l0.382,0.12l0.294,0.126l0.813,0.468l0.093,0.077
			l0.549,0.585l0.376,0.413l0.472,0.606l0.192,0.313l0.305,0.611l0.053,0.187l0.215,1.075l0.033,0.532l0.042,0.716v0.567
			l-0.078,0.936l-0.065,0.49l-0.145,0.664l-0.142,0.354l-0.343,0.754l-0.171,0.267l-0.439,0.539l-0.365,0.402l-0.529,0.529
			l-0.249,0.187l-0.698,0.444l-0.067,0.028l-0.553,0.126l-0.516,0.065l-0.883,0.07l-0.452-0.026l-0.973-0.116l-0.353-0.07
			l-0.702-0.234l-0.487-0.194l-0.459-0.229l-0.294-0.189l-0.672-0.571l-0.376-0.376l-0.146-0.17l-0.364-0.464l-0.096-0.153
			l-0.306-0.534l-0.042-0.083L132.141,199l-0.054-0.19l-0.114-0.426l-0.017-0.153c-0.011-0.098-0.025-0.196-0.043-0.293
			l-0.104-0.558l-0.027-0.43v-0.493l0.041-0.618l0.039-0.54l0.061-0.423l0.039-0.182c0.043-0.1,0.082-0.202,0.116-0.305l0.197-0.593
			l0.339-0.791l0.019-0.037l0.221-0.359l0.326-0.444l0.253-0.276l0.412-0.359l0.301-0.193l0.771-0.403l0.391-0.146l0.989-0.266
			L136.617,190.456L136.617,190.456z"/>
	</g>
	<g>
		<linearGradient id="SVGID_3_" gradientUnits="userSpaceOnUse" x1="215.8809" y1="212.7336" x2="173.1505" y2="188.0632">
			<stop  offset="0" style="stop-color:#ED1C24"/>
			<stop  offset="0.07" style="stop-color:#F6871F"/>
			<stop  offset="0.175" style="stop-color:#F78E30"/>
			<stop  offset="0.2848" style="stop-color:#DCE11F"/>
			<stop  offset="0.3944" style="stop-color:#7AC57D"/>
			<stop  offset="0.524" style="stop-color:#42BDED"/>
			<stop  offset="0.6777" style="stop-color:#4554A4"/>
			<stop  offset="0.8335" style="stop-color:#E60F8D"/>
			<stop  offset="1" style="stop-color:#ED1C24"/>
		</linearGradient>
		<path fill="url(#SVGID_3_)" d="M185.179,178.524l2.45,0.15h0.8l3.55-0.05h0.5l0.35,0.199l0.25,0.351v4.35l0.1,2.9v0.8l-0.15,2.9
			v0.8l0.1,2.899v0.801l0.15,2.899v0.8l-0.3,6.601l0.05,0.5l0.05,0.25l0.1,0.25l0.25,0.201l0.6,0.1l1.7,0.101l1.5-0.101h0.8l7.2-0.1
			l0.8-0.051l1.7-0.2l0.8-0.05h0.75l0.6,0.149l0.35,0.3l0.15,0.352l0.05,0.549l0.05,2.801l0.05,0.8l0.1,1.55l-0.05,0.801v0.449
			l-0.15,0.601l-0.3,0.351l-0.35,0.149l-0.5,0.101h-0.4l-0.7,0.05l-5.55-0.3h-3.75l-4.5,0.3l-2.9-0.199h-3.7l-2.3,0.149h-0.75
			l-0.7-0.051l-0.55-0.1l-0.35-0.2l-0.25-0.3l-0.1-0.601v-0.801l0.25-1.9l0.05-0.75l-0.2-2.649v-0.799l0.1-2.65v-0.801l0.1-6.1
			v-0.801l-0.2-6.1v-0.8l-0.05-2.65v-4.25l-0.1-1.5v-0.75l0.05-0.45l0.15-0.649l0.2-0.3l0.35-0.15l0.55-0.1h0.4L185.179,178.524
			 M185.179,174.524c-0.09,0-0.18,0.003-0.27,0.009l-0.615,0.042h-0.265c-0.239,0-0.478,0.021-0.713,0.064l-0.55,0.1
			c-0.298,0.054-0.588,0.142-0.866,0.261l-0.35,0.15c-0.712,0.306-1.321,0.813-1.75,1.458l-0.2,0.3
			c-0.267,0.401-0.459,0.846-0.568,1.315l-0.15,0.649c-0.035,0.152-0.062,0.307-0.079,0.462l-0.05,0.45
			c-0.016,0.146-0.024,0.293-0.024,0.44v0.75c0,0.089,0.003,0.178,0.009,0.266l0.091,1.367v4.117c0,0.025,0,0.05,0,0.075
			l0.049,2.613v0.762c0,0.044,0,0.087,0.002,0.131l0.198,6.034v0.702l-0.1,6.067c0,0.021,0,0.044,0,0.065v0.726l-0.097,2.574
			c-0.002,0.051-0.003,0.101-0.003,0.151v0.799c0,0.101,0.004,0.201,0.011,0.302l0.179,2.364l-0.022,0.338l-0.233,1.774
			c-0.023,0.173-0.034,0.347-0.034,0.521v0.801c0,0.221,0.018,0.44,0.054,0.657l0.1,0.601c0.117,0.701,0.418,1.358,0.874,1.904
			l0.25,0.3c0.305,0.366,0.673,0.675,1.087,0.911l0.35,0.2c0.395,0.226,0.825,0.382,1.272,0.463l0.55,0.1
			c0.14,0.025,0.281,0.044,0.423,0.054l0.7,0.051c0.097,0.007,0.193,0.011,0.29,0.011h0.75c0.086,0,0.173-0.003,0.259-0.009
			l2.17-0.141h3.433l2.763,0.189c0.091,0.007,0.183,0.01,0.274,0.01c0.089,0,0.177-0.003,0.266-0.009l4.367-0.291h3.509l5.442,0.294
			c0.072,0.004,0.144,0.006,0.216,0.006c0.095,0,0.189-0.003,0.284-0.01l0.558-0.04h0.258c0.265,0,0.529-0.026,0.789-0.078
			l0.5-0.101c0.268-0.055,0.53-0.136,0.781-0.243l0.35-0.149c0.565-0.241,1.067-0.609,1.468-1.076l0.3-0.351
			c0.404-0.472,0.692-1.031,0.843-1.634l0.15-0.601c0.079-0.316,0.119-0.643,0.119-0.969v-0.325l0.042-0.677
			c0.011-0.168,0.01-0.337,0-0.505l-0.1-1.55l-0.044-0.704l-0.048-2.711c-0.002-0.098-0.007-0.196-0.016-0.294l-0.05-0.549
			c-0.038-0.414-0.141-0.82-0.304-1.204l-0.15-0.352c-0.242-0.565-0.61-1.068-1.078-1.469l-0.35-0.3
			c-0.472-0.404-1.032-0.693-1.635-0.844l-0.6-0.149c-0.316-0.078-0.641-0.118-0.966-0.118h-0.75c-0.083,0-0.166,0.003-0.249,0.008
			l-0.8,0.05c-0.073,0.005-0.146,0.011-0.219,0.02l-1.593,0.188l-0.593,0.038l-7.074,0.098h-0.772c-0.041,0-0.082,0.001-0.124,0.002
			l0.169-3.722c0.002-0.061,0.004-0.121,0.004-0.182v-0.8c0-0.069-0.002-0.138-0.005-0.207l-0.145-2.796v-0.698
			c0-0.046-0.001-0.092-0.002-0.138l-0.098-2.83v-0.627l0.145-2.797c0.003-0.069,0.005-0.138,0.005-0.207v-0.8
			c0-0.046-0.001-0.092-0.002-0.138l-0.098-2.831v-4.281c0-0.833-0.26-1.645-0.743-2.322l-0.25-0.351
			c-0.337-0.473-0.773-0.867-1.278-1.154l-0.35-0.199c-0.603-0.343-1.285-0.523-1.979-0.523h-0.5c-0.019,0-0.038,0-0.056,0
			l-3.522,0.049h-0.649l-2.327-0.143C185.343,174.526,185.261,174.524,185.179,174.524L185.179,174.524z"/>
	</g>
	<g>
		<linearGradient id="SVGID_4_" gradientUnits="userSpaceOnUse" x1="275.395" y1="184.7283" x2="233.4084" y2="208.9692">
			<stop  offset="0" style="stop-color:#ED1C24"/>
			<stop  offset="0.07" style="stop-color:#F6871F"/>
			<stop  offset="0.175" style="stop-color:#F78E30"/>
			<stop  offset="0.2848" style="stop-color:#DCE11F"/>
			<stop  offset="0.3944" style="stop-color:#7AC57D"/>
			<stop  offset="0.524" style="stop-color:#42BDED"/>
			<stop  offset="0.6777" style="stop-color:#4554A4"/>
			<stop  offset="0.8335" style="stop-color:#E60F8D"/>
			<stop  offset="1" style="stop-color:#ED1C24"/>
		</linearGradient>
		<path fill="url(#SVGID_4_)" d="M254.78,177.724l1.5,0.1l1.2,0.051l0.85,0.1l0.85,0.15l0.85,0.199l0.85,0.15l0.8,0.2l0.75,0.2
			l0.75,0.25l1.05,0.399l0.7,0.3l1.65,0.95l0.65,0.45l0.65,0.5l0.85,0.8l0.55,0.5l0.55,0.55l0.45,0.601l0.7,0.95l0.4,0.649
			l0.35,0.65l0.4,0.649l0.55,1l0.4,0.65l0.35,0.75l0.25,0.7l0.25,1.149l0.3,1.5l0.1,0.851l0.15,0.85l0.1,1.7l-0.05,0.8l-0.1,1.15
			l-0.1,0.75l-0.3,1.5l-0.1,1.149l-0.1,0.75l-0.15,0.801l-0.2,0.75l-0.5,1.05l-0.35,0.7l-1.35,2.251l-0.45,0.648l-0.5,0.649
			l-0.5,0.551l-0.8,0.851l-0.55,0.5l-0.65,0.5l-0.6,0.449l-0.9,0.602l-0.65,0.399l-0.75,0.399l-0.7,0.3l-1,0.4l-0.75,0.198l-1.6,0.5
			l-0.85,0.25l-0.8,0.201l-0.85,0.199l-0.85,0.15l-0.85,0.05h-2.7l-1.7-0.102l-1.65-0.198l-0.7-0.15l-0.75-0.199l-2.7-0.899
			l-0.8-0.25l-0.85-0.351l-1.6-0.701l-0.75-0.398l-0.75-0.45l-0.65-0.5l-0.65-0.55l-0.6-0.65l-0.55-0.648l-1.35-1.352l-0.5-0.601
			l-0.5-0.649l-0.4-0.648l-0.4-1.001l-0.75-2.25l-0.3-1.051l-0.15-0.75l-0.15-0.8l-0.15-0.75l-0.15-1.1l-0.05-0.75l-0.05-0.851
			v-0.85l0.05-0.85l0.05-0.9l0.1-0.85l0.15-0.851l0.2-0.85l0.25-0.851l0.25-0.75l0.3-0.8l0.35-1.149l0.35-0.801l0.2-0.449l0.4-0.75
			l0.7-1.101l0.5-0.7l0.25-0.399l0.6-0.601l0.85-0.699l0.65-0.5l0.65-0.45l1.5-1l0.65-0.4l0.7-0.399l0.7-0.351l1.05-0.45l0.7-0.25
			l0.75-0.25l0.75-0.199l1.9-0.351l0.75-0.149l2.5-0.301L254.78,177.724 M254.879,206.774l1.25-0.101l0.8-0.101l1.1-0.25l0.7-0.3
			l1.1-0.7l0.6-0.449l0.8-0.801l0.5-0.551l0.65-0.797l0.45-0.701l0.5-1.1l0.3-0.75l0.25-1.15l0.1-0.75l0.1-1.199v-0.851l-0.05-0.85
			l-0.05-0.801l-0.3-1.5l-0.2-0.699l-0.55-1.101l-0.4-0.649l-0.7-0.9l-0.5-0.55l-0.75-0.8l-0.55-0.45l-1.3-0.75l-0.7-0.3l-0.8-0.25
			l-0.8-0.15l-1.6-0.1l-0.75,0.05l-1.1,0.05l-0.75,0.15l-1.3,0.35l-0.8,0.3l-1.15,0.601l-0.7,0.45l-0.8,0.699l-0.55,0.601
			l-0.55,0.75l-0.4,0.649l-0.15,0.301l-0.45,1.05l-0.25,0.75l-0.15,0.35l-0.15,0.7l-0.1,0.7l-0.05,0.7l-0.05,0.75v0.75l0.05,0.8
			l0.15,0.8l0.05,0.45l0.2,0.75l0.1,0.35l0.25,0.7l0.2,0.4l0.4,0.698l0.25,0.4l0.55,0.7l0.3,0.351l0.6,0.601l1,0.85l0.7,0.45
			l0.8,0.399l0.75,0.301l1.05,0.35l0.75,0.15l1.25,0.149L254.879,206.774 M254.78,173.724c-0.083,0-0.166,0.002-0.249,0.008
			l-1.6,0.1c-0.077,0.005-0.153,0.012-0.229,0.021l-2.5,0.301c-0.102,0.012-0.203,0.028-0.304,0.048l-0.722,0.144l-1.872,0.345
			c-0.102,0.019-0.202,0.041-0.301,0.068l-0.75,0.199c-0.08,0.021-0.16,0.045-0.238,0.071l-0.75,0.25
			c-0.027,0.009-0.054,0.019-0.081,0.028l-0.7,0.25c-0.078,0.027-0.154,0.058-0.23,0.09l-1.05,0.45
			c-0.073,0.031-0.145,0.064-0.216,0.1l-0.7,0.351c-0.064,0.032-0.127,0.066-0.19,0.102l-0.7,0.399
			c-0.039,0.022-0.078,0.045-0.116,0.069l-0.65,0.4c-0.041,0.025-0.081,0.051-0.121,0.078l-1.5,1c-0.02,0.013-0.04,0.026-0.059,0.04
			l-0.65,0.45c-0.055,0.038-0.108,0.077-0.161,0.118l-0.65,0.5c-0.035,0.026-0.068,0.054-0.102,0.081l-0.85,0.699
			c-0.101,0.083-0.197,0.17-0.289,0.262l-0.6,0.601c-0.213,0.213-0.401,0.45-0.561,0.705l-0.186,0.296l-0.429,0.601
			c-0.042,0.058-0.081,0.117-0.12,0.178l-0.7,1.101c-0.055,0.086-0.106,0.175-0.155,0.265l-0.4,0.75
			c-0.045,0.084-0.086,0.17-0.125,0.257l-0.2,0.449l-0.36,0.823c-0.062,0.143-0.116,0.289-0.162,0.437l-0.313,1.029l-0.256,0.682
			c-0.017,0.046-0.034,0.092-0.049,0.139l-0.25,0.75c-0.015,0.045-0.029,0.091-0.043,0.137l-0.25,0.851
			c-0.02,0.07-0.039,0.14-0.056,0.21l-0.2,0.85c-0.017,0.074-0.033,0.148-0.046,0.223l-0.15,0.851
			c-0.013,0.075-0.024,0.15-0.033,0.226l-0.1,0.85c-0.01,0.083-0.017,0.165-0.021,0.248l-0.05,0.9l-0.05,0.834
			c-0.004,0.079-0.007,0.157-0.007,0.236v0.85c0,0.079,0.002,0.158,0.007,0.236l0.05,0.851l0.052,0.779
			c0.006,0.092,0.016,0.184,0.028,0.275l0.15,1.1c0.011,0.082,0.025,0.163,0.041,0.244l0.15,0.75l0.142,0.755l0.159,0.795
			c0.021,0.105,0.046,0.21,0.076,0.313l0.3,1.051c0.016,0.056,0.034,0.112,0.052,0.167l0.75,2.25
			c0.025,0.074,0.052,0.147,0.081,0.22l0.4,1.001c0.085,0.214,0.189,0.421,0.311,0.617l0.4,0.648
			c0.072,0.117,0.15,0.229,0.234,0.339l0.5,0.649c0.031,0.04,0.063,0.08,0.095,0.119l0.5,0.601c0.077,0.093,0.159,0.182,0.244,0.267
			l1.235,1.237l0.445,0.524c0.036,0.043,0.072,0.084,0.11,0.125l0.6,0.65c0.112,0.121,0.231,0.234,0.356,0.341l0.65,0.55
			c0.047,0.04,0.095,0.079,0.145,0.116l0.65,0.5c0.122,0.094,0.249,0.181,0.38,0.26l0.75,0.45c0.06,0.036,0.121,0.07,0.182,0.103
			l0.75,0.398c0.088,0.048,0.179,0.091,0.271,0.132l1.6,0.701c0.027,0.012,0.054,0.022,0.081,0.034l0.85,0.351
			c0.108,0.045,0.219,0.085,0.332,0.119l0.764,0.239l2.666,0.888c0.079,0.026,0.158,0.05,0.237,0.071l0.75,0.199
			c0.062,0.017,0.124,0.031,0.187,0.045l0.7,0.15c0.12,0.025,0.241,0.046,0.363,0.061l1.65,0.198
			c0.079,0.01,0.159,0.017,0.239,0.021l1.7,0.102c0.079,0.005,0.159,0.007,0.238,0.007h2.7c0.078,0,0.156-0.002,0.234-0.007
			l0.85-0.05c0.155-0.009,0.31-0.027,0.463-0.055l0.85-0.15c0.072-0.013,0.145-0.027,0.216-0.044l0.85-0.199
			c0.021-0.005,0.042-0.01,0.063-0.016l0.8-0.201c0.051-0.013,0.102-0.026,0.153-0.041l0.85-0.25
			c0.021-0.007,0.043-0.014,0.064-0.02l1.515-0.474l0.664-0.176c0.158-0.042,0.313-0.093,0.465-0.153l1-0.4
			c0.029-0.012,0.059-0.024,0.087-0.037l0.7-0.3c0.104-0.044,0.206-0.093,0.306-0.146l0.75-0.399
			c0.072-0.038,0.144-0.079,0.214-0.122l0.65-0.399c0.043-0.027,0.086-0.055,0.129-0.083l0.9-0.602
			c0.059-0.039,0.117-0.08,0.174-0.123l0.6-0.449c0.014-0.011,0.028-0.021,0.042-0.032l0.65-0.5
			c0.087-0.066,0.171-0.137,0.252-0.211l0.55-0.5c0.077-0.069,0.151-0.143,0.222-0.218l0.8-0.851
			c0.017-0.018,0.033-0.035,0.049-0.053l0.5-0.551c0.072-0.08,0.142-0.163,0.208-0.248l0.5-0.649
			c0.041-0.053,0.08-0.106,0.118-0.161l0.45-0.648c0.05-0.072,0.098-0.146,0.143-0.222l1.35-2.251
			c0.053-0.088,0.102-0.178,0.147-0.269l0.35-0.7c0.012-0.023,0.022-0.046,0.034-0.069l0.5-1.05c0.105-0.221,0.19-0.451,0.253-0.688
			l0.2-0.75c0.026-0.098,0.048-0.196,0.067-0.295l0.15-0.801c0.013-0.069,0.024-0.138,0.033-0.207l0.1-0.75
			c0.008-0.062,0.015-0.122,0.02-0.184l0.081-0.928l0.257-1.282c0.017-0.085,0.031-0.17,0.042-0.256l0.1-0.75
			c0.008-0.062,0.015-0.123,0.02-0.184l0.1-1.15c0.003-0.031,0.005-0.063,0.007-0.094l0.05-0.8c0.01-0.162,0.01-0.324,0.001-0.486
			l-0.1-1.7c-0.009-0.154-0.027-0.308-0.054-0.46l-0.13-0.736l-0.086-0.736c-0.013-0.106-0.029-0.212-0.05-0.317l-0.3-1.5
			c-0.004-0.022-0.009-0.044-0.014-0.066l-0.25-1.149c-0.037-0.168-0.084-0.333-0.142-0.495l-0.25-0.7
			c-0.042-0.118-0.09-0.233-0.143-0.347l-0.35-0.75c-0.064-0.139-0.137-0.273-0.217-0.403l-0.349-0.568l-0.504-0.916
			c-0.031-0.057-0.064-0.113-0.098-0.168l-0.339-0.551l-0.295-0.548c-0.037-0.068-0.075-0.135-0.116-0.201l-0.4-0.649
			c-0.058-0.095-0.121-0.187-0.186-0.276l-0.7-0.95l-0.468-0.625c-0.115-0.153-0.24-0.297-0.375-0.432l-0.55-0.55
			c-0.044-0.044-0.089-0.087-0.136-0.13l-0.525-0.477l-0.826-0.776c-0.096-0.091-0.197-0.177-0.302-0.257l-0.65-0.5
			c-0.053-0.041-0.106-0.08-0.161-0.118l-0.65-0.45c-0.091-0.063-0.185-0.123-0.282-0.178l-1.65-0.95
			c-0.136-0.079-0.277-0.149-0.422-0.211l-0.7-0.3c-0.05-0.021-0.101-0.042-0.152-0.062l-1.05-0.399
			c-0.052-0.02-0.104-0.039-0.157-0.056l-0.75-0.25c-0.077-0.025-0.155-0.049-0.233-0.07l-0.75-0.2
			c-0.021-0.005-0.041-0.011-0.061-0.016l-0.8-0.2c-0.091-0.023-0.182-0.042-0.274-0.059l-0.741-0.131l-0.742-0.174
			c-0.072-0.017-0.144-0.031-0.216-0.044l-0.85-0.15c-0.077-0.014-0.154-0.025-0.231-0.034l-0.85-0.1
			c-0.098-0.012-0.197-0.02-0.296-0.024l-1.152-0.048l-1.452-0.097C254.957,173.727,254.868,173.724,254.78,173.724L254.78,173.724z
			 M253.465,190.456l0.794-0.036c0.028-0.001,0.056-0.003,0.084-0.005l0.493-0.033l1.096,0.068l0.326,0.061l0.382,0.12l0.294,0.126
			l0.813,0.468l0.093,0.077l0.549,0.585l0.376,0.413l0.472,0.606l0.192,0.313l0.305,0.611l0.053,0.187l0.215,1.074l0.033,0.531
			l0.042,0.719v0.566l-0.078,0.935l-0.065,0.491l-0.145,0.666l-0.142,0.354l-0.342,0.752l-0.171,0.268l-0.439,0.539l-0.365,0.402
			l-0.529,0.529l-0.249,0.187l-0.698,0.444l-0.067,0.028l-0.553,0.126l-0.516,0.065l-0.883,0.07l-0.451-0.026l-0.974-0.116
			l-0.353-0.07l-0.702-0.233l-0.487-0.195l-0.459-0.229l-0.294-0.189l-0.673-0.571l-0.375-0.376l-0.145-0.169l-0.365-0.465
			l-0.096-0.154l-0.305-0.533l-0.041-0.082L248.989,199l-0.055-0.191l-0.113-0.424l-0.017-0.15c-0.011-0.1-0.025-0.199-0.044-0.297
			l-0.105-0.559l-0.027-0.43v-0.491l0.042-0.616l0.039-0.542l0.061-0.423l0.039-0.185c0.042-0.1,0.081-0.201,0.115-0.303
			l0.197-0.592l0.339-0.792l0.019-0.038l0.221-0.359l0.326-0.444l0.253-0.276l0.412-0.36l0.301-0.193l0.771-0.403l0.391-0.146
			l0.989-0.266L253.465,190.456L253.465,190.456z"/>
	</g>
	<g>
		<linearGradient id="SVGID_5_" gradientUnits="userSpaceOnUse" x1="327.7891" y1="222.0911" x2="300.0684" y2="174.0774">
			<stop  offset="0" style="stop-color:#ED1C24"/>
			<stop  offset="0.07" style="stop-color:#F6871F"/>
			<stop  offset="0.175" style="stop-color:#F78E30"/>
			<stop  offset="0.2848" style="stop-color:#DCE11F"/>
			<stop  offset="0.3944" style="stop-color:#7AC57D"/>
			<stop  offset="0.524" style="stop-color:#42BDED"/>
			<stop  offset="0.6777" style="stop-color:#4554A4"/>
			<stop  offset="0.8335" style="stop-color:#E60F8D"/>
			<stop  offset="1" style="stop-color:#ED1C24"/>
		</linearGradient>
		<path fill="url(#SVGID_5_)" d="M302.025,178.325l2.25,0.1l5.951,0.2l3.399-0.2h0.8l3.301,0.2h1.899l0.851,0.05l0.75,0.15
			l1.051,0.3l0.75,0.25l0.75,0.3l0.801,0.3l0.75,0.351l0.648,0.399l0.951,0.65l0.549,0.45l0.5,0.5l0.5,0.6l0.701,1l0.449,0.65
			l0.602,0.949l0.35,0.7l0.35,0.75l0.25,0.8l0.15,0.801l0.05,0.8l0.101,1.1v0.8l-0.051,0.801l-0.1,0.85l-0.15,0.85l-0.199,0.801
			l-0.301,0.75l-0.35,0.75l-0.45,0.75l-0.45,0.649l-0.449,0.601l-0.451,0.55l-0.799,0.8l-0.551,0.45l-1,0.55l-0.6,0.35l-0.65,0.351
			l-0.649,0.148l-0.4,0.15l0.201,0.4l1.799,2.55l0.451,0.601l1.8,2.449l0.5,0.601l1.801,2.5l0.5,0.602l1.551,1.8l0.449,0.55
			l0.25,0.551l-0.201,0.448l-0.649,0.2h-3.5l-2.75-0.05h-0.802l-2.25,0.1h-0.649l-0.448-0.199l-0.4-0.399l-1.6-2.25l-0.451-0.602
			l-1.601-2.148l-0.448-0.602l-1.4-2.3l-0.45-0.601l-1.601-2.149l-0.351-0.399l-0.301-0.15l-0.601-0.05l-1.6-0.102l-0.65,0.052
			l-0.399,0.3l-0.149,0.648l-0.101,2.751l0.051,0.801l0.199,2.801l0.051,0.8l0.05,1.2v0.8l-0.05,0.8l-0.101,0.601l-0.25,0.25
			l-0.551,0.149h-0.8l-2.399-0.149l-2.301,0.149h-0.801l-2.3-0.149l-0.6-0.101l-0.3-0.199l-0.1-0.5l-0.05-0.7l-0.05-0.75l0.1-1.301
			l0.05-0.8l0.2-2.7v-0.8l-0.15-2.701l-0.05-0.799l-0.05-2.65v-0.801l0.15-2.699v-0.801l-0.15-2.699v-0.801l0.15-2.699v-0.801
			l0.1-2.649v-0.8l-0.05-2.7v-0.8l-0.1-1.65l0.05-0.75l0.05-0.3l0.15-0.65l0.3-0.399l0.6-0.15l0.399-0.05L302.025,178.325
			 M313.727,195.424h0.801l3.3-0.2l1.101-0.2l0.649-0.25l0.601-0.35l0.5-0.601l0.35-0.75l0.201-0.8l0.049-0.8l-0.049-0.85
			l-0.102-0.851l-0.199-0.75l-0.351-0.75l-0.45-0.6l-0.55-0.45l-0.7-0.3l-1.1-0.25l-0.801-0.101l-2.5-0.05h-0.801l-2.55,0.15
			l-0.601,0.05l-0.351,0.15l-0.3,0.3l-0.051,0.55l0.051,1.15l0.1,0.8l0.101,0.85l0.051,0.851l-0.101,2.75l0.05,0.55l0.101,0.3
			l0.352,0.15l0.6,0.1L313.727,195.424 M302.025,174.325c-0.089,0-0.177,0.003-0.265,0.009l-0.75,0.05
			c-0.077,0.005-0.154,0.012-0.23,0.022l-0.399,0.05c-0.161,0.02-0.32,0.05-0.477,0.089l-0.6,0.15
			c-0.89,0.223-1.676,0.745-2.227,1.479l-0.3,0.399c-0.335,0.447-0.573,0.959-0.699,1.503l-0.15,0.65
			c-0.018,0.079-0.034,0.157-0.047,0.237l-0.05,0.3c-0.022,0.131-0.038,0.264-0.046,0.396l-0.05,0.75
			c-0.011,0.169-0.012,0.338-0.001,0.507l0.093,1.529v0.679c0,0.024,0,0.049,0,0.074l0.049,2.664v0.687l-0.097,2.574
			c-0.002,0.05-0.003,0.101-0.003,0.151v0.689l-0.144,2.589c-0.004,0.074-0.006,0.147-0.006,0.222v0.801
			c0,0.074,0.002,0.148,0.006,0.222l0.144,2.588v0.579l-0.144,2.589c-0.004,0.074-0.006,0.147-0.006,0.222v0.801
			c0,0.025,0,0.051,0,0.076l0.05,2.65c0.001,0.058,0.004,0.115,0.007,0.173l0.05,0.799l0.142,2.563v0.542l-0.189,2.553l-0.051,0.815
			l-0.098,1.273c-0.015,0.191-0.016,0.383-0.003,0.574l0.05,0.75l0.051,0.717c0.012,0.168,0.035,0.336,0.067,0.501l0.1,0.5
			c0.209,1.042,0.823,1.958,1.708,2.547l0.3,0.199c0.469,0.311,0.998,0.52,1.553,0.613l0.6,0.101
			c0.133,0.021,0.267,0.037,0.402,0.046l2.299,0.149c0.087,0.006,0.173,0.009,0.26,0.009h0.801c0.087,0,0.173-0.003,0.259-0.009
			l2.047-0.133l2.146,0.134c0.083,0.005,0.166,0.008,0.249,0.008h0.8c0.354,0,0.706-0.047,1.047-0.14l0.551-0.149
			c0.674-0.183,1.288-0.538,1.781-1.032l0.25-0.25c0.589-0.589,0.979-1.347,1.117-2.167l0.101-0.601
			c0.022-0.137,0.038-0.274,0.047-0.412l0.05-0.8c0.005-0.083,0.008-0.166,0.008-0.249v-0.8c0-0.056-0.001-0.11-0.004-0.166
			l-0.049-1.182c0.031,0.046,0.063,0.092,0.098,0.136l0.448,0.602l1.6,2.148l0.429,0.571l1.57,2.208
			c0.13,0.184,0.275,0.355,0.435,0.515l0.4,0.399c0.347,0.346,0.754,0.624,1.2,0.823l0.448,0.199
			c0.512,0.228,1.065,0.345,1.625,0.345h0.649c0.059,0,0.118-0.001,0.177-0.004l2.162-0.096h0.677l2.714,0.049
			c0.024,0.001,0.048,0.001,0.072,0.001h3.5c0.399,0,0.797-0.06,1.179-0.178l0.649-0.2c1.1-0.339,1.999-1.135,2.471-2.185
			l0.201-0.448c0.47-1.047,0.468-2.246-0.007-3.291l-0.25-0.551c-0.144-0.314-0.326-0.609-0.545-0.878l-0.449-0.55
			c-0.022-0.026-0.045-0.054-0.067-0.08l-1.527-1.772l-0.389-0.468l-1.72-2.388c-0.055-0.076-0.112-0.149-0.172-0.222l-0.423-0.507
			l-1.501-2.043l0.48-0.394c0.104-0.085,0.204-0.175,0.299-0.27l0.799-0.8c0.092-0.093,0.18-0.189,0.262-0.29l0.451-0.55
			c0.038-0.046,0.075-0.093,0.111-0.141l0.449-0.601c0.028-0.039,0.057-0.078,0.084-0.117l0.45-0.649
			c0.05-0.072,0.098-0.145,0.143-0.22l0.45-0.75c0.071-0.119,0.137-0.242,0.195-0.369l0.35-0.75
			c0.031-0.066,0.061-0.133,0.088-0.201l0.301-0.75c0.068-0.17,0.124-0.345,0.169-0.523l0.199-0.801
			c0.021-0.089,0.041-0.179,0.057-0.269l0.15-0.85c0.014-0.077,0.025-0.154,0.034-0.231l0.1-0.85
			c0.009-0.071,0.015-0.142,0.02-0.213l0.051-0.801c0.005-0.084,0.008-0.168,0.008-0.253v-0.8c0-0.122-0.006-0.243-0.017-0.364
			l-0.096-1.042l-0.046-0.742c-0.01-0.165-0.03-0.328-0.061-0.49l-0.15-0.801c-0.029-0.154-0.067-0.306-0.114-0.455l-0.25-0.8
			c-0.053-0.169-0.117-0.335-0.192-0.497l-0.35-0.75c-0.015-0.033-0.03-0.065-0.046-0.097l-0.35-0.7
			c-0.062-0.122-0.128-0.24-0.2-0.354l-0.602-0.949c-0.028-0.044-0.058-0.089-0.088-0.132l-0.449-0.65l-0.717-1.023
			c-0.064-0.091-0.132-0.18-0.203-0.265l-0.5-0.6c-0.077-0.093-0.158-0.182-0.244-0.267l-0.5-0.5
			c-0.093-0.093-0.189-0.181-0.291-0.264l-0.549-0.45c-0.09-0.074-0.184-0.144-0.279-0.209l-0.951-0.65
			c-0.053-0.036-0.105-0.071-0.16-0.104l-0.648-0.399c-0.13-0.08-0.265-0.153-0.404-0.218l-0.75-0.351
			c-0.095-0.045-0.192-0.085-0.291-0.123l-0.759-0.284l-0.71-0.284c-0.072-0.029-0.146-0.056-0.22-0.081l-0.75-0.25
			c-0.055-0.018-0.111-0.036-0.167-0.052l-1.051-0.3c-0.103-0.029-0.207-0.054-0.312-0.075l-0.75-0.15
			c-0.182-0.037-0.366-0.061-0.553-0.071l-0.851-0.05c-0.077-0.004-0.155-0.007-0.233-0.007h-1.778l-3.18-0.193
			c-0.081-0.005-0.161-0.007-0.242-0.007h-0.8c-0.078,0-0.157,0.002-0.235,0.007l-3.215,0.189l-5.766-0.194l-2.208-0.098
			C302.144,174.327,302.084,174.325,302.025,174.325L302.025,174.325z M314.082,190.524h0.354l2.25,0.045l0.396,0.05l0.12,0.027
			l0.039,0.331l0.016,0.275l-2.852,0.173h-0.28c0.001-0.096-0.001-0.192-0.007-0.288L314.082,190.524L314.082,190.524z"/>
	</g>
	<g>
		<linearGradient id="SVGID_6_" gradientUnits="userSpaceOnUse" x1="373.6631" y1="177.5007" x2="351.7521" y2="215.4517">
			<stop  offset="0" style="stop-color:#ED1C24"/>
			<stop  offset="0.07" style="stop-color:#F6871F"/>
			<stop  offset="0.175" style="stop-color:#F78E30"/>
			<stop  offset="0.2848" style="stop-color:#DCE11F"/>
			<stop  offset="0.3944" style="stop-color:#7AC57D"/>
			<stop  offset="0.524" style="stop-color:#42BDED"/>
			<stop  offset="0.6777" style="stop-color:#4554A4"/>
			<stop  offset="0.8335" style="stop-color:#E60F8D"/>
			<stop  offset="1" style="stop-color:#ED1C24"/>
		</linearGradient>
		<path fill="url(#SVGID_6_)" d="M366.975,178.475l0.551,0.101l0.101,0.3l0.051,0.55l0.101,1.3l0.05,0.8v4.9l0.05,2.7v0.8
			l-0.05,2.75v0.8l0.05,2.7v0.8l-0.1,2.7v4.35l0.148,2.7v0.8l-0.199,2.7v0.8l-0.051,2.751v0.55l-0.15,0.25l-0.399,0.149
			l-0.699,0.051l-2.551-0.051h-3.101l-2.5-0.199l-0.301-0.101l-0.149-0.149v-0.5l-0.101-1.25v-0.801l-0.05-0.75v-0.75l-0.149-2.7
			l0.05-0.8l0.149-2.701l0.051-0.799l-0.149-2.75v-0.8l-0.051-2.7v-4.3l-0.05-2.75v-0.8l0.05-2.7v-4.3l-0.101-2.75l0.15-0.55
			l0.3-0.2l0.5-0.05h0.399l0.75-0.051l1.201,0.051h0.8l2.3-0.101H366.975 M366.975,174.475h-3.1c-0.059,0-0.116,0.001-0.175,0.004
			l-2.213,0.097h-0.627l-1.117-0.047c-0.057-0.002-0.112-0.003-0.169-0.003c-0.09,0-0.181,0.003-0.271,0.009l-0.615,0.042h-0.264
			c-0.133,0-0.265,0.006-0.396,0.02l-0.5,0.05c-0.652,0.065-1.279,0.29-1.825,0.654l-0.3,0.2c-0.801,0.535-1.382,1.342-1.637,2.271
			l-0.15,0.55c-0.106,0.391-0.153,0.796-0.139,1.201l0.098,2.677v4.189l-0.049,2.664c-0.001,0.024-0.001,0.049-0.001,0.074v0.8
			c0,0.024,0,0.048,0.001,0.072l0.049,2.714v4.264c0,0.025,0,0.05,0.001,0.075l0.05,2.663v0.762c0,0.072,0.002,0.145,0.006,0.217
			l0.137,2.515l-0.036,0.563l-0.151,2.734l-0.048,0.771c-0.01,0.157-0.011,0.313-0.002,0.47l0.144,2.59v0.64
			c0,0.089,0.003,0.177,0.009,0.265l0.041,0.618v0.668c0,0.107,0.004,0.214,0.013,0.321l0.088,1.09v0.339
			c0,1.061,0.422,2.078,1.172,2.828l0.149,0.149c0.438,0.438,0.972,0.769,1.56,0.966l0.301,0.101
			c0.308,0.103,0.627,0.168,0.951,0.193l2.5,0.199c0.105,0.009,0.211,0.013,0.317,0.013h3.061l2.511,0.05
			c0.027,0.001,0.054,0.001,0.08,0.001c0.097,0,0.193-0.004,0.29-0.011l0.699-0.051c0.38-0.027,0.754-0.109,1.111-0.243l0.399-0.149
			c0.847-0.316,1.561-0.91,2.026-1.685l0.15-0.25c0.374-0.622,0.572-1.335,0.572-2.062v-0.513l0.05-2.714
			c0.001-0.025,0.001-0.05,0.001-0.074v-0.652l0.188-2.554c0.007-0.098,0.011-0.195,0.011-0.294v-0.8
			c0-0.073-0.002-0.146-0.006-0.22l-0.143-2.591v-4.166l0.097-2.626c0.002-0.049,0.003-0.098,0.003-0.147v-0.8
			c0-0.024,0-0.049-0.001-0.074l-0.049-2.664v-0.727l0.049-2.714c0.001-0.024,0.001-0.048,0.001-0.072v-0.8
			c0-0.024,0-0.049-0.001-0.074l-0.049-2.664v-4.863c0-0.083-0.003-0.166-0.008-0.249l-0.05-0.8c-0.001-0.02-0.003-0.04-0.004-0.06
			l-0.101-1.3c-0.002-0.02-0.003-0.04-0.005-0.059l-0.051-0.55c-0.028-0.308-0.093-0.611-0.191-0.905l-0.101-0.3
			c-0.463-1.381-1.641-2.401-3.073-2.663l-0.551-0.101C367.456,174.497,367.216,174.475,366.975,174.475L366.975,174.475z"/>
	</g>
	<g>
		<linearGradient id="SVGID_7_" gradientUnits="userSpaceOnUse" x1="395.1514" y1="220.1643" x2="422.0158" y2="173.6339">
			<stop  offset="0" style="stop-color:#ED1C24"/>
			<stop  offset="0.07" style="stop-color:#F6871F"/>
			<stop  offset="0.175" style="stop-color:#F78E30"/>
			<stop  offset="0.2848" style="stop-color:#DCE11F"/>
			<stop  offset="0.3944" style="stop-color:#7AC57D"/>
			<stop  offset="0.524" style="stop-color:#42BDED"/>
			<stop  offset="0.6777" style="stop-color:#4554A4"/>
			<stop  offset="0.8335" style="stop-color:#E60F8D"/>
			<stop  offset="1" style="stop-color:#ED1C24"/>
		</linearGradient>
		<path fill="url(#SVGID_7_)" d="M416.023,178.526l3.549,0.2l2.701-0.05l0.649,0.1l0.25,0.551v0.35l0.05,0.85l-0.05,0.45
			l-0.051,0.55l-0.299,0.45l-1.552,2.3l-2,2.9l-0.399,0.7l-1.601,2.25l-0.399,0.7l-1.351,2.399l-0.449,0.65l-1.602,2.25
			l-0.449,0.649l-1.851,3l-1.5,2.351l-0.399,0.648l-1.551,2.302l-0.199,0.5l0.148,0.35l0.551,0.15l0.85,0.051h0.852l5.102-0.352
			h0.799l3.051,0.101h0.801l1.949-0.149h0.75l0.399,0.05l0.5,0.2l0.15,0.601v4.098h0.003l-0.1,3.3l-0.102,0.601l-0.449,0.2
			l-0.4,0.05h-0.699l-1.9-0.149h-0.75l-2.899,0.149l-3.7-0.25h-0.8l-2.899,0.149l-0.801,0.051l-2.9,0.05l-0.799-0.05l-2.9-0.149
			l-0.801-0.051h-2.899l-0.851,0.051l-1.25,0.1l-0.851,0.051h-0.75l-0.45-0.2l-0.101-0.601l-0.101-2v-0.5l0.201-0.45l1.601-2.25
			l0.448-0.699l1.5-2.351l0.4-0.7l1.6-2.251l0.4-0.698l1.45-2.4l0.399-0.7l1.551-2.35l0.4-0.7l2-2.9l1.698-2.3l2.052-2.95v-0.55
			l-0.601-0.2l-2.801-0.199h-0.8l-2.801,0.05h-0.801l-2.8,0.149h-1.851l-1.65-0.1l-0.549-0.2l-0.201-0.6v-0.4l-0.049-0.85
			l-0.051-1.7v-0.8l-0.101-3.05l0.25-0.5l0.649-0.051l6.25-0.199h0.801l2.751,0.05h0.799l2.701-0.05h0.8l2.75,0.149l3.551-0.2
			H416.023 M416.023,174.526h-0.801c-0.075,0-0.15,0.002-0.226,0.006l-3.329,0.188l-2.529-0.137
			c-0.072-0.004-0.145-0.006-0.217-0.006h-0.8c-0.024,0-0.049,0-0.073,0l-2.665,0.049h-0.726l-2.715-0.049c-0.024,0-0.048,0-0.072,0
			h-0.801c-0.043,0-0.085,0-0.127,0.002l-6.25,0.199c-0.063,0.002-0.123,0.005-0.185,0.01l-0.649,0.051
			c-1.399,0.109-2.639,0.944-3.267,2.199l-0.25,0.5c-0.297,0.596-0.441,1.256-0.42,1.921l0.099,2.984v0.734
			c0,0.04,0.001,0.08,0.002,0.12l0.051,1.7c0.001,0.037,0.003,0.073,0.005,0.11l0.042,0.735v0.286c0,0.433,0.07,0.862,0.208,1.272
			l0.201,0.6c0.387,1.154,1.278,2.068,2.421,2.485l0.549,0.2c0.363,0.132,0.744,0.211,1.13,0.235l1.65,0.1
			c0.08,0.005,0.161,0.007,0.241,0.007h1.851c0.071,0,0.143-0.002,0.213-0.006l2.693-0.144h0.569l-1.916,2.779
			c-0.063,0.092-0.124,0.188-0.18,0.285l-0.337,0.589l-1.48,2.243c-0.047,0.073-0.093,0.146-0.136,0.222l-0.375,0.657L396,200.008
			c-0.016,0.026-0.031,0.052-0.046,0.079l-0.304,0.53l-1.487,2.092c-0.076,0.107-0.146,0.218-0.212,0.332l-0.352,0.615l-1.448,2.27
			l-0.392,0.61l-1.545,2.172c-0.153,0.215-0.284,0.445-0.393,0.687l-0.201,0.45c-0.229,0.514-0.348,1.069-0.348,1.632v0.5
			c0,0.067,0.002,0.134,0.005,0.201l0.101,2c0.008,0.154,0.024,0.308,0.05,0.46l0.101,0.601c0.222,1.324,1.094,2.448,2.32,2.994
			l0.45,0.2c0.512,0.228,1.065,0.345,1.625,0.345h0.75c0.079,0,0.159-0.002,0.238-0.007l0.851-0.051
			c0.026-0.002,0.053-0.004,0.079-0.006l1.211-0.097l0.691-0.041h2.653l0.675,0.043l2.947,0.152l0.756,0.047
			c0.083,0.005,0.166,0.008,0.249,0.008c0.022,0,0.046,0,0.068-0.001l2.9-0.05c0.062-0.001,0.123-0.003,0.185-0.007l0.801-0.051
			l2.749-0.142h0.563l3.565,0.241c0.09,0.006,0.18,0.009,0.27,0.009c0.068,0,0.138-0.002,0.206-0.005l2.796-0.145h0.49l1.744,0.137
			c0.104,0.009,0.209,0.013,0.313,0.013h0.699c0.165,0,0.33-0.01,0.494-0.03l0.4-0.05c0.392-0.049,0.773-0.155,1.134-0.316
			l0.449-0.2c1.224-0.545,2.093-1.666,2.316-2.986l0.102-0.601c0.03-0.181,0.048-0.363,0.054-0.546l0.1-3.3
			c0.003-0.092,0.003-0.184-0.001-0.274v-3.944c0-0.327-0.04-0.654-0.12-0.972l-0.15-0.601c-0.312-1.245-1.201-2.265-2.393-2.742
			l-0.5-0.2c-0.318-0.127-0.652-0.213-0.992-0.256l-0.399-0.05c-0.164-0.021-0.33-0.03-0.495-0.03h-0.75
			c-0.102,0-0.204,0.004-0.306,0.012l-1.797,0.138h-0.581l-2.985-0.099c-0.044-0.001-0.088-0.002-0.132-0.002h-0.799
			c-0.092,0-0.184,0.003-0.275,0.01l-0.122,0.008l1.745-2.828l0.374-0.541l1.586-2.228c0.011-0.016,0.021-0.031,0.032-0.046
			l0.449-0.65c0.069-0.101,0.135-0.205,0.194-0.312l1.351-2.399l0.289-0.506l1.485-2.087c0.077-0.109,0.148-0.221,0.215-0.337
			l0.314-0.552l1.903-2.76l1.574-2.333l0.316-0.476c0.365-0.551,0.589-1.185,0.65-1.844l0.047-0.514l0.046-0.414
			c0.024-0.224,0.03-0.449,0.018-0.674l-0.043-0.733v-0.232c0-0.57-0.122-1.134-0.357-1.653l-0.25-0.551
			c-0.559-1.23-1.7-2.096-3.036-2.3l-0.649-0.1c-0.201-0.031-0.403-0.046-0.606-0.046c-0.024,0-0.049,0-0.074,0l-2.551,0.047
			l-3.399-0.192C416.174,174.528,416.099,174.526,416.023,174.526L416.023,174.526z"/>
	</g>
	<g>
		<linearGradient id="SVGID_8_" gradientUnits="userSpaceOnUse" x1="449.8906" y1="173.7502" x2="476.3804" y2="219.6318">
			<stop  offset="0" style="stop-color:#ED1C24"/>
			<stop  offset="0.07" style="stop-color:#F6871F"/>
			<stop  offset="0.175" style="stop-color:#F78E30"/>
			<stop  offset="0.2848" style="stop-color:#DCE11F"/>
			<stop  offset="0.3944" style="stop-color:#7AC57D"/>
			<stop  offset="0.524" style="stop-color:#42BDED"/>
			<stop  offset="0.6777" style="stop-color:#4554A4"/>
			<stop  offset="0.8335" style="stop-color:#E60F8D"/>
			<stop  offset="1" style="stop-color:#ED1C24"/>
		</linearGradient>
		<path fill="url(#SVGID_8_)" d="M450.671,178.374l3.25,0.2l3.05-0.051h0.8l3,0.2h0.802l3-0.2h0.801l6.8,0.101l0.852-0.05
			l1.698-0.15h1.25l0.701,0.15l0.299,0.25l0.102,0.35l0.101,0.65v1.35l-0.101,1.25v0.85l0.05,1.25l0.051,0.75l-0.051,0.75
			l-0.1,0.601l-0.2,0.35l-0.25,0.2l-0.602,0.1h-0.398l-0.8,0.051l-4.701-0.101h-0.8l-2.551,0.101h-0.801l-2.6-0.101l-2.25-0.149
			h-0.75l-0.4,0.05l-0.5,0.1l-0.25,0.25l-0.05,0.3l-0.101,0.551l-0.101,1.199v0.801l0.051,0.85l0.05,0.55l0.101,0.351l0.2,0.25
			l0.55,0.149l1.601,0.101l1.601-0.101h4.75l5.601-0.3l1.55,0.1l0.552,0.101l0.3,0.25l0.148,0.3l0.052,0.55l0.1,0.851l0.05,0.85
			v1.65l0.102,1.149l-0.102,1.5l-0.1,0.601l-0.2,0.35l-0.35,0.25l-0.5,0.1h-1l-2.25-0.25l-0.802-0.05l-4,0.25l-3.199-0.1h-0.801
			l-2-0.15l-0.851,0.05l-0.602,0.051l-0.25,0.149l-0.148,0.351l-0.05,0.75l-0.15,1.25l-0.05,0.8v1.101l0.05,0.5l0.15,0.351
			l0.198,0.199l0.552,0.051l2.75,0.1h0.8l2.7-0.199l3.551,0.199h0.8l3.55-0.199h0.75l0.75,0.051l1.802,0.199l0.3,0.15l0.2,0.299
			l0.05,0.551l0.149,2.749l-0.049,0.8l-0.201,2.7l-0.049,0.5l-0.201,0.351l-0.25,0.2l-6.55,0.199h-0.8l-2.65-0.199l-0.801,0.05
			l-2.6,0.2l-0.8,0.05h-3.45l-2.602-0.199h-0.8l-4.301,0.25l-1.699-0.101l-0.601-0.101l-0.351-0.25l-0.149-0.351l-0.102-0.55
			l-0.1-1.149l-0.05-0.801l0.05-0.75v-0.75l0.2-2.65v-0.799l0.05-2.65l-0.05-0.801l-0.149-2.65l-0.051-0.8l0.1-2.7v-4.25
			l0.201-2.649l-0.051-0.8l-0.15-2.65l-0.049-0.8v-1.2l0.101-1.5v-0.75l0.149-2.6l0.05-0.7l0.149-0.4l0.25-0.2l0.4-0.05
			L450.671,178.374 M450.671,174.374c-0.203,0-0.405,0.016-0.606,0.046l-0.594,0.091l-0.344,0.043
			c-0.734,0.091-1.429,0.384-2.006,0.847l-0.25,0.2c-0.564,0.452-0.995,1.047-1.248,1.724l-0.149,0.4
			c-0.133,0.358-0.215,0.733-0.242,1.115l-0.05,0.7c-0.001,0.018-0.002,0.036-0.003,0.054l-0.149,2.6
			c-0.005,0.076-0.007,0.153-0.007,0.229v0.616l-0.092,1.366c-0.006,0.089-0.009,0.178-0.009,0.268v1.2
			c0,0.081,0.003,0.163,0.008,0.244l0.049,0.8l0.149,2.633l0.034,0.548l-0.18,2.372c-0.008,0.101-0.012,0.202-0.012,0.303v4.176
			l-0.097,2.626c-0.005,0.134-0.003,0.268,0.005,0.401l0.051,0.8l0.148,2.622l0.041,0.662l-0.047,2.488
			c-0.001,0.025-0.001,0.05-0.001,0.075v0.647l-0.188,2.5c-0.008,0.101-0.012,0.201-0.012,0.302v0.617l-0.041,0.618
			c-0.012,0.171-0.012,0.342-0.001,0.513l0.05,0.801c0.002,0.032,0.004,0.065,0.007,0.098l0.1,1.149
			c0.012,0.128,0.028,0.255,0.052,0.381l0.102,0.55c0.054,0.289,0.139,0.571,0.254,0.842l0.149,0.351
			c0.288,0.677,0.758,1.261,1.357,1.688l0.351,0.25c0.494,0.353,1.063,0.588,1.661,0.688l0.601,0.101
			c0.141,0.023,0.282,0.039,0.425,0.048l1.699,0.101c0.079,0.005,0.157,0.007,0.236,0.007c0.077,0,0.155-0.002,0.232-0.007
			l4.185-0.243h0.53l2.449,0.188c0.102,0.008,0.204,0.012,0.306,0.012h3.45c0.083,0,0.166-0.003,0.249-0.008l0.8-0.05
			c0.02-0.001,0.039-0.003,0.058-0.004l2.571-0.198l0.496-0.03l2.377,0.178c0.1,0.008,0.2,0.012,0.3,0.012h0.8
			c0.041,0,0.081-0.001,0.122-0.002l6.55-0.199c0.866-0.026,1.701-0.334,2.378-0.876l0.25-0.2c0.392-0.313,0.72-0.696,0.97-1.131
			l0.201-0.351c0.282-0.492,0.456-1.038,0.512-1.603l0.049-0.5c0.003-0.03,0.005-0.061,0.008-0.092l0.201-2.7
			c0.001-0.018,0.002-0.035,0.003-0.053l0.049-0.8c0.01-0.154,0.01-0.308,0.002-0.461l-0.149-2.749
			c-0.003-0.048-0.006-0.096-0.011-0.144l-0.05-0.551c-0.06-0.667-0.287-1.31-0.66-1.866l-0.2-0.299
			c-0.385-0.574-0.912-1.039-1.529-1.349l-0.204-0.103c0.064-0.093,0.125-0.188,0.181-0.287l0.2-0.35
			c0.236-0.412,0.397-0.863,0.476-1.333l0.1-0.601c0.021-0.127,0.036-0.255,0.045-0.384l0.102-1.5
			c0.014-0.207,0.012-0.415-0.007-0.622l-0.086-0.974v-1.474c0-0.078-0.002-0.156-0.007-0.234l-0.05-0.85
			c-0.005-0.078-0.012-0.154-0.021-0.231l-0.094-0.805l-0.048-0.505c-0.046-0.487-0.181-0.961-0.397-1.4l-0.148-0.3
			c-0.097-0.194-0.208-0.379-0.333-0.555l0.247-0.199c0.393-0.313,0.722-0.699,0.972-1.134l0.2-0.35
			c0.235-0.413,0.396-0.864,0.475-1.333l0.1-0.601c0.021-0.127,0.036-0.255,0.045-0.384l0.051-0.75c0.012-0.18,0.012-0.361,0-0.541
			l-0.048-0.694l-0.044-1.115v-0.609l0.088-1.09c0.009-0.106,0.013-0.214,0.013-0.321v-1.35c0-0.205-0.016-0.409-0.047-0.611
			l-0.101-0.65c-0.026-0.17-0.063-0.339-0.112-0.504l-0.102-0.35c-0.222-0.763-0.665-1.442-1.274-1.952l-0.299-0.25
			c-0.499-0.417-1.092-0.707-1.728-0.843l-0.701-0.15c-0.275-0.059-0.557-0.089-0.839-0.089h-1.25c-0.118,0-0.235,0.005-0.353,0.016
			l-1.639,0.145l-0.646,0.038l-6.653-0.098c-0.021,0-0.04,0-0.06,0h-0.801c-0.089,0-0.178,0.003-0.267,0.009l-2.866,0.191h-0.536
			l-2.866-0.191c-0.089-0.006-0.178-0.009-0.267-0.009h-0.8c-0.022,0-0.044,0-0.066,0l-2.894,0.048l-3.094-0.19
			C450.835,174.377,450.753,174.374,450.671,174.374L450.671,174.374z"/>
	</g>
	<g>
		<linearGradient id="SVGID_9_" gradientUnits="userSpaceOnUse" x1="499.7705" y1="196.5256" x2="541.4248" y2="196.5256">
			<stop  offset="0" style="stop-color:#ED1C24"/>
			<stop  offset="0.07" style="stop-color:#F6871F"/>
			<stop  offset="0.175" style="stop-color:#F78E30"/>
			<stop  offset="0.2848" style="stop-color:#DCE11F"/>
			<stop  offset="0.3944" style="stop-color:#7AC57D"/>
			<stop  offset="0.524" style="stop-color:#42BDED"/>
			<stop  offset="0.6777" style="stop-color:#4554A4"/>
			<stop  offset="0.8335" style="stop-color:#E60F8D"/>
			<stop  offset="1" style="stop-color:#ED1C24"/>
		</linearGradient>
		<path fill="url(#SVGID_9_)" d="M506.271,178.325l2.25,0.1l5.949,0.2l3.4-0.2h0.801l3.3,0.2h1.9l0.85,0.05l0.751,0.15l1.049,0.3
			l0.75,0.25l0.75,0.3l0.802,0.3l0.75,0.351l0.649,0.399l0.949,0.65l0.551,0.45l0.5,0.5l0.5,0.6l0.699,1l0.451,0.65l0.6,0.949
			l0.351,0.7l0.35,0.75l0.25,0.8l0.15,0.801l0.051,0.8l0.1,1.1v0.8l-0.05,0.801l-0.101,0.85l-0.15,0.85l-0.199,0.801l-0.301,0.75
			l-0.35,0.75l-0.449,0.75l-0.451,0.649l-0.449,0.601l-0.45,0.55l-0.8,0.8l-0.551,0.45l-1,0.55l-0.6,0.35l-0.65,0.351l-0.65,0.148
			l-0.398,0.15l0.2,0.4l1.8,2.55l0.45,0.601l1.801,2.449l0.5,0.601l1.799,2.5l0.5,0.602l1.551,1.8l0.45,0.55l0.25,0.551l-0.2,0.448
			l-0.649,0.2h-3.5l-2.75-0.05h-0.802l-2.25,0.1h-0.648l-0.45-0.199l-0.399-0.399l-1.601-2.25l-0.45-0.602l-1.601-2.148
			l-0.449-0.602l-1.399-2.3l-0.449-0.601l-1.602-2.149l-0.351-0.399l-0.3-0.15l-0.601-0.05l-1.601-0.102l-0.65,0.052l-0.398,0.3
			l-0.149,0.648l-0.101,2.751l0.05,0.801l0.2,2.801l0.05,0.8l0.051,1.2v0.8l-0.051,0.8l-0.101,0.601l-0.25,0.25l-0.551,0.149h-0.799
			l-2.4-0.149l-2.301,0.149h-0.8l-2.3-0.149l-0.602-0.101l-0.3-0.199l-0.1-0.5l-0.051-0.7l-0.051-0.75l0.102-1.301l0.049-0.8
			l0.201-2.7v-0.8l-0.15-2.701l-0.051-0.799l-0.049-2.65v-0.801l0.148-2.699v-0.801l-0.148-2.699v-0.801l0.148-2.699v-0.801
			l0.102-2.649v-0.8l-0.051-2.7v-0.8l-0.101-1.65l0.05-0.75l0.051-0.3l0.149-0.65l0.3-0.399l0.602-0.15l0.398-0.05L506.271,178.325
			 M517.974,195.424h0.8l3.301-0.2l1.1-0.2l0.65-0.25l0.6-0.35l0.5-0.601l0.35-0.75l0.201-0.8l0.049-0.8l-0.049-0.85l-0.101-0.851
			l-0.2-0.75l-0.35-0.75l-0.45-0.6l-0.55-0.45l-0.701-0.3l-1.1-0.25l-0.801-0.101l-2.5-0.05h-0.8l-2.551,0.15l-0.601,0.05
			l-0.35,0.15l-0.301,0.3l-0.05,0.55l0.05,1.15l0.1,0.8l0.102,0.85l0.05,0.851l-0.101,2.75l0.051,0.55l0.101,0.3l0.351,0.15l0.6,0.1
			L517.974,195.424 M506.271,174.325c-0.088,0-0.177,0.003-0.265,0.009l-0.751,0.05c-0.077,0.005-0.154,0.013-0.231,0.022
			l-0.398,0.05c-0.159,0.02-0.318,0.05-0.474,0.089l-0.602,0.15c-0.892,0.223-1.678,0.745-2.229,1.479l-0.3,0.399
			c-0.336,0.448-0.574,0.96-0.699,1.506l-0.149,0.65c-0.018,0.075-0.032,0.151-0.046,0.228l-0.05,0.3
			c-0.023,0.133-0.039,0.268-0.048,0.403l-0.05,0.75c-0.011,0.169-0.012,0.339-0.001,0.508l0.093,1.529v0.678
			c0,0.025,0,0.05,0.001,0.075l0.05,2.663v0.686l-0.099,2.573c-0.002,0.051-0.003,0.102-0.003,0.153v0.691l-0.143,2.589
			c-0.004,0.073-0.006,0.146-0.006,0.22v0.801c0,0.073,0.002,0.146,0.006,0.22l0.143,2.589v0.581l-0.143,2.589
			c-0.004,0.073-0.006,0.146-0.006,0.22v0.801c0,0.024,0,0.049,0.001,0.073l0.049,2.65c0.001,0.061,0.003,0.12,0.007,0.181
			l0.051,0.799l0.143,2.559v0.54l-0.19,2.552c-0.001,0.018-0.002,0.035-0.003,0.053l-0.047,0.767l-0.1,1.267
			c-0.015,0.193-0.016,0.388-0.003,0.582l0.051,0.75l0.053,0.719c0.012,0.166,0.034,0.33,0.066,0.492l0.1,0.5
			c0.208,1.044,0.823,1.962,1.709,2.551l0.3,0.199c0.469,0.312,0.999,0.521,1.555,0.613l0.602,0.101
			c0.132,0.022,0.266,0.037,0.399,0.046l2.3,0.149c0.087,0.006,0.173,0.009,0.26,0.009h0.8c0.087,0,0.173-0.003,0.259-0.009
			l2.048-0.133l2.146,0.134c0.082,0.005,0.165,0.008,0.248,0.008h0.799c0.354,0,0.706-0.047,1.047-0.14l0.551-0.149
			c0.674-0.183,1.288-0.538,1.781-1.032l0.25-0.25c0.589-0.589,0.979-1.347,1.117-2.167l0.101-0.601
			c0.022-0.135,0.038-0.271,0.047-0.407l0.051-0.8c0.005-0.085,0.008-0.169,0.008-0.254v-0.8c0-0.057-0.001-0.112-0.004-0.169
			l-0.05-1.177c0.032,0.046,0.064,0.092,0.099,0.138l0.449,0.602l1.598,2.145l0.427,0.57l1.572,2.21
			c0.13,0.182,0.273,0.353,0.432,0.51l0.399,0.399c0.349,0.349,0.759,0.63,1.209,0.83l0.45,0.199
			c0.51,0.226,1.062,0.342,1.619,0.342h0.648c0.059,0,0.118-0.001,0.177-0.004l2.162-0.096h0.677l2.714,0.049
			c0.024,0.001,0.048,0.001,0.072,0.001h3.5c0.399,0,0.797-0.06,1.179-0.178l0.649-0.2c1.102-0.34,2.003-1.138,2.474-2.191
			l0.2-0.448c0.467-1.045,0.464-2.241-0.01-3.284l-0.25-0.551c-0.144-0.316-0.328-0.612-0.548-0.881l-0.45-0.55
			c-0.021-0.025-0.043-0.052-0.064-0.077l-1.527-1.772l-0.389-0.467l-1.717-2.387c-0.056-0.076-0.112-0.151-0.173-0.224
			l-0.423-0.508l-1.502-2.042l0.48-0.394c0.104-0.084,0.203-0.174,0.297-0.269l0.8-0.8c0.094-0.094,0.183-0.191,0.267-0.294
			l0.45-0.55c0.037-0.045,0.073-0.092,0.108-0.138l0.449-0.601c0.028-0.038,0.056-0.075,0.082-0.114l0.451-0.649
			c0.052-0.074,0.101-0.149,0.146-0.227l0.449-0.75c0.071-0.118,0.136-0.24,0.193-0.365l0.35-0.75
			c0.031-0.066,0.061-0.133,0.088-0.201l0.301-0.75c0.068-0.17,0.124-0.345,0.169-0.523l0.199-0.801
			c0.021-0.089,0.041-0.179,0.057-0.269l0.15-0.85c0.014-0.075,0.024-0.151,0.034-0.227l0.101-0.85
			c0.009-0.074,0.015-0.148,0.02-0.222l0.05-0.801c0.005-0.083,0.008-0.166,0.008-0.249v-0.8c0-0.121-0.006-0.241-0.017-0.361
			l-0.095-1.046l-0.047-0.746c-0.011-0.163-0.031-0.325-0.061-0.485l-0.15-0.801c-0.029-0.154-0.067-0.306-0.114-0.455l-0.25-0.8
			c-0.053-0.169-0.117-0.335-0.192-0.497l-0.35-0.75c-0.016-0.034-0.031-0.067-0.048-0.101l-0.351-0.7
			c-0.06-0.118-0.125-0.233-0.195-0.345l-0.6-0.949c-0.03-0.048-0.063-0.097-0.095-0.144l-0.451-0.65l-0.708-1.012
			c-0.065-0.093-0.134-0.183-0.206-0.27l-0.5-0.6c-0.077-0.093-0.158-0.182-0.244-0.267l-0.5-0.5
			c-0.094-0.094-0.193-0.184-0.297-0.269l-0.551-0.45c-0.087-0.071-0.178-0.139-0.271-0.203l-0.949-0.65
			c-0.054-0.037-0.109-0.073-0.165-0.107l-0.649-0.399c-0.13-0.08-0.264-0.152-0.401-0.216l-0.75-0.351
			c-0.097-0.045-0.194-0.086-0.293-0.123l-0.76-0.284l-0.709-0.283c-0.072-0.029-0.146-0.056-0.22-0.081l-0.75-0.25
			c-0.055-0.018-0.109-0.035-0.165-0.051l-1.049-0.3c-0.104-0.029-0.209-0.055-0.314-0.076l-0.751-0.15
			c-0.182-0.036-0.366-0.06-0.551-0.071l-0.85-0.05c-0.078-0.004-0.156-0.007-0.234-0.007h-1.779l-3.179-0.193
			c-0.081-0.005-0.161-0.007-0.242-0.007h-0.801c-0.078,0-0.157,0.002-0.235,0.007l-3.216,0.189l-5.764-0.194l-2.208-0.098
			C506.39,174.327,506.33,174.325,506.271,174.325L506.271,174.325z M518.329,190.524h0.354l2.25,0.045l0.396,0.05l0.12,0.027
			l0.039,0.328l0.016,0.277l-2.852,0.173h-0.28c0.001-0.095-0.001-0.189-0.007-0.284L518.329,190.524L518.329,190.524z"/>
	</g>
</g>
</svg>
